<svg width="150" height="100" viewBox="0 0 150 100" fill="none" xmlns="http://www.w3.org/2000/svg">
<mask id="mask0_5_12" style="mask-type:alpha" maskUnits="userSpaceOnUse" x="0" y="0" width="150" height="100">
<rect width="150" height="100" fill="white"/>
</mask>
<g mask="url(#mask0_5_12)">
<path fill-rule="evenodd" clip-rule="evenodd" d="M75 150L56.4352 114.635L71.244 129.444L67.7616 110.381C54.7168 109.326 43.5184 105.346 34.1704 98.4416L4.28936 120.71L26.1746 91.3448C17.374 81.992 12.3803 70.4144 11.1939 56.6128L-25 50L10.9323 48.3976C11.2579 31.86 16.6549 18.284 27.1226 7.67112L33.095 15.6848C27.2009 24.484 24.0949 35.1968 23.7771 47.8248L70.7312 45.7312L73.0216 -5.64016C59.6536 -5.26376 48.62 -0.874882 39.9208 7.52544L33.0514 2.406C43.8864 -6.00264 57.2832 -10.3545 73.2456 -10.6505L75 -50L76.7544 -10.6505C92.7168 -10.3545 106.114 -6.00264 116.949 2.406L109.985 7.5956C101.31 -0.816402 90.3072 -5.22656 76.9784 -5.63528L79.2688 45.7312L126.056 47.8176C125.739 35.2496 122.659 24.5792 116.817 15.8032L122.878 7.67112C133.345 18.284 138.742 31.86 139.068 48.3976L175 50L138.806 56.6128C137.619 70.4144 132.626 81.992 123.826 91.3448L145.71 120.71L115.83 98.4416C106.48 105.346 95.2832 109.326 82.2392 110.381L78.756 129.444L93.5648 114.635L75 150ZM24.2408 58.9968L59.5512 65.4488L66.8064 105.154C56.6728 103.825 48.0448 99.9112 40.9192 93.412L55.9096 82.24L39.7512 73.128L32.3123 83.1096C27.9712 76.2064 25.2805 68.1688 24.2408 58.9968ZM90.4488 65.4488L125.589 59.028C124.554 68.132 121.89 76.1192 117.597 82.988L110.249 73.128L94.0904 82.24L108.989 93.3432C101.889 99.8472 93.292 103.777 83.1984 105.132L90.4488 65.4488ZM56.6864 68.3136L58.8328 80.0616L29.0425 63.2624L56.6864 68.3136ZM93.3136 68.3136L91.1672 80.0616L120.958 63.2624L93.3136 68.3136ZM27.2094 2.20936L67.98 32.5944L67.5368 42.5368L57.5944 42.98L27.2094 2.20936ZM122.79 2.20936L92.4056 42.98L82.4632 42.5368L82.02 32.5944L122.79 2.20936Z" fill="white"/>
</g>
</svg>
