<svg width="100" height="100" viewBox="0 0 100 100" fill="none" xmlns="http://www.w3.org/2000/svg">
<path fill-rule="evenodd" clip-rule="evenodd" d="M50 100L40.7176 82.3176L48.122 89.722L46.3808 80.1904C39.8584 79.6632 34.2592 77.6732 29.5852 74.2208L14.6447 85.3552L25.5873 70.6724C21.187 65.996 18.6902 60.2072 18.097 53.3064L0 50L17.9662 49.1988C18.129 40.93 20.8274 34.142 26.0613 28.8356L29.0475 32.8424C26.1004 37.242 24.5474 42.5984 24.3886 48.9124L47.8656 47.8656L49.0108 22.1799C42.3268 22.3681 36.81 24.5626 32.4604 28.7627L29.0257 26.203C34.4432 21.9987 41.1416 19.8228 49.1228 19.6748L50 0L50.8772 19.6748C58.8584 19.8228 65.5568 21.9987 70.9744 26.203L67.4924 28.7978C63.1548 24.5918 57.6536 22.3867 50.9892 22.1824L52.1344 47.8656L75.528 48.9088C75.3696 42.6248 73.8296 37.2896 70.9084 32.9016L73.9388 28.8356C79.1724 34.142 81.8712 40.93 82.034 49.1988L100 50L81.9032 53.3064C81.3096 60.2072 78.8128 65.996 74.4128 70.6724L85.3552 85.3552L70.4148 74.2208C65.74 77.6732 60.1416 79.6632 53.6196 80.1904L51.878 89.722L59.2824 82.3176L50 100ZM24.6204 54.4984L42.2756 57.7244L45.9032 77.5772C40.8364 76.9124 36.5224 74.9556 32.9596 71.706L40.4548 66.12L32.3756 61.564L28.6562 66.5548C26.4856 63.1032 25.1402 59.0844 24.6204 54.4984ZM57.7244 57.7244L75.2944 54.514C74.7768 59.066 73.4448 63.0596 71.2984 66.494L67.6244 61.564L59.5452 66.12L66.9944 71.6716C63.4444 74.9236 59.146 76.8884 54.0992 77.566L57.7244 57.7244ZM40.8432 59.1568L41.9164 65.0308L27.0212 56.6312L40.8432 59.1568ZM59.1568 59.1568L58.0836 65.0308L72.9788 56.6312L59.1568 59.1568ZM26.1047 26.1047L46.49 41.2972L46.2684 46.2684L41.2972 46.49L26.1047 26.1047ZM73.8952 26.1047L58.7028 46.49L53.7316 46.2684L53.51 41.2972L73.8952 26.1047Z" fill="white"/>
</svg>
