<svg width="84" height="74" viewBox="0 0 84 74" fill="none" xmlns="http://www.w3.org/2000/svg">
<path d="M44.1983 36.9832L43.7063 37.072L43.7063 37.072L44.1983 36.9832ZM54.0361 21.4827L54.2538 21.9329L54.2538 21.9329L54.0361 21.4827ZM44.6086 39.2325L45.1004 39.1423L45.1004 39.1423L44.6086 39.2325ZM37.3105 70.2992L36.9247 69.9812L36.1001 70.9817L37.383 70.7939L37.3105 70.2992ZM59.6665 61.7167L59.9642 62.1184L60.0926 62.0233L60.142 61.8712L59.6665 61.7167ZM60.2138 60.0324L60.6893 60.1869L60.8016 59.8414L60.5077 59.6278L60.2138 60.0324ZM48.3322 51.3999V50.8999H46.7934L48.0383 51.8044L48.3322 51.3999ZM63.0187 51.3999V51.8999H63.3819L63.4942 51.5544L63.0187 51.3999ZM67.557 37.4322L68.0326 37.2777L67.557 35.8142L67.0815 37.2777L67.557 37.4322ZM71.0182 48.0846L70.5427 48.2391L70.9201 49.4007L71.4656 48.3079L71.0182 48.0846ZM73.9956 1.94531L74.4843 1.83965L74.1511 0.298745L73.5353 1.75L73.9956 1.94531ZM44.6904 36.8945C43.8155 32.0449 44.6025 29.1444 46.3253 27.0581C48.0876 24.924 50.8787 23.5644 54.2538 21.9329L53.8185 21.0326C50.5032 22.6352 47.484 24.0845 45.5542 26.4214C43.585 28.8061 42.7982 32.0387 43.7063 37.072L44.6904 36.8945ZM45.1004 39.1423C44.9674 38.4173 44.8302 37.6692 44.6904 36.8945L43.7063 37.072C43.8464 37.8484 43.9838 38.5979 44.1168 39.3227L45.1004 39.1423ZM37.6964 70.6172C43.0335 64.1415 45.5104 59.507 46.3225 54.8336C47.1312 50.1802 46.2744 45.5433 45.1004 39.1423L44.1168 39.3227C45.2998 45.7724 46.1093 50.2197 45.3373 54.6624C44.5687 59.0851 42.2181 63.5585 36.9247 69.9812L37.6964 70.6172ZM59.3688 61.315C53.7981 65.4439 46.5475 68.4417 37.2381 69.8045L37.383 70.7939C46.8289 69.4112 54.241 66.3604 59.9642 62.1184L59.3688 61.315ZM60.142 61.8712L60.6893 60.1869L59.7383 59.8778L59.191 61.5622L60.142 61.8712ZM60.5077 59.6278L48.6261 50.9954L48.0383 51.8044L59.9199 60.4369L60.5077 59.6278ZM48.3322 51.8999H63.0187V50.8999H48.3322V51.8999ZM63.4942 51.5544L68.0326 37.5867L67.0815 37.2777L62.5431 51.2454L63.4942 51.5544ZM67.0815 37.5867L70.5427 48.2391L71.4937 47.9301L68.0326 37.2777L67.0815 37.5867ZM73.5068 2.05098C76.7874 17.2236 77.2525 34.475 70.5708 47.8613L71.4656 48.3079C78.2963 34.6229 77.7842 17.1017 74.4843 1.83965L73.5068 2.05098ZM54.2538 21.9329C60.7863 18.7749 69.1027 14.7561 74.4558 2.14062L73.5353 1.75C68.3305 14.0157 60.3013 17.8987 53.8185 21.0326L54.2538 21.9329Z" fill="#989898"/>
<path d="M1 29.9456C18.5938 30.7691 33.7919 50.9084 35.6636 69.6253C58.8725 43.1222 29.2999 18.0417 1 29.9456Z" stroke="#989898"/>
<path d="M67.5429 42.2222L71.0133 52.8744L82.2434 52.8744L73.158 59.4578L76.6283 70.11L67.5429 63.5266L58.4575 70.11L61.9279 59.4578L52.8425 52.8744L64.0726 52.8744L67.5429 42.2222Z" stroke="#989898"/>
</svg>
