<svg width="156" height="134" viewBox="0 0 156 134" fill="none" xmlns="http://www.w3.org/2000/svg">
<mask id="mask0_1766_527" style="mask-type:alpha" maskUnits="userSpaceOnUse" x="0" y="0" width="129" height="117">
<path fill-rule="evenodd" clip-rule="evenodd" d="M73.5063 59.6213C70.4723 42.8045 78.8621 38.7487 90.2465 33.2453C101.32 27.8921 115.227 21.1692 124.21 0C129.809 25.8952 130.64 55.4814 119.142 78.5144L113.252 60.3865L105.529 84.1542H80.5386L100.757 98.8434L99.8252 101.71C90.2165 108.831 77.742 113.977 61.7858 116.313C79.8749 94.3645 78.2152 85.3159 74.2043 63.4487C73.9781 62.2152 73.7444 60.941 73.5063 59.6213ZM0 47.6437C29.9381 49.0451 55.7994 83.3146 58.9843 115.164C98.4771 70.0654 48.1557 27.3878 0 47.6437Z" fill="#D9D9D9"/>
</mask>
<g mask="url(#mask0_1766_527)">
<rect x="-25.3521" y="-25.2236" width="195.171" height="173.768" fill="url(#paint0_linear_1766_527)"/>
</g>
<g filter="url(#filter0_d_1766_527)">
<path d="M113.231 68.5352L119.136 86.6612H138.245L122.785 97.8637L128.691 115.99L113.231 104.787L97.7708 115.99L103.676 97.8637L88.216 86.6612H107.326L113.231 68.5352Z" fill="#FFD481"/>
</g>
<defs>
<filter id="filter0_d_1766_527" x="70.7158" y="51.0352" width="85.0298" height="82.4541" filterUnits="userSpaceOnUse" color-interpolation-filters="sRGB">
<feFlood flood-opacity="0" result="BackgroundImageFix"/>
<feColorMatrix in="SourceAlpha" type="matrix" values="0 0 0 0 0 0 0 0 0 0 0 0 0 0 0 0 0 0 127 0" result="hardAlpha"/>
<feOffset/>
<feGaussianBlur stdDeviation="8.75"/>
<feComposite in2="hardAlpha" operator="out"/>
<feColorMatrix type="matrix" values="0 0 0 0 1 0 0 0 0 0.831417 0 0 0 0 0.504167 0 0 0 0.4 0"/>
<feBlend mode="normal" in2="BackgroundImageFix" result="effect1_dropShadow_1766_527"/>
<feBlend mode="normal" in="SourceGraphic" in2="effect1_dropShadow_1766_527" result="shape"/>
</filter>
<linearGradient id="paint0_linear_1766_527" x1="-14.5234" y1="132.493" x2="134.785" y2="55.1632" gradientUnits="userSpaceOnUse">
<stop stop-color="#4690FF"/>
<stop offset="0.888003" stop-color="#F7284D"/>
</linearGradient>
</defs>
</svg>
