<svg width="150" height="100" viewBox="0 0 150 100" fill="none" xmlns="http://www.w3.org/2000/svg">
<mask id="mask0_5_30" style="mask-type:alpha" maskUnits="userSpaceOnUse" x="0" y="0" width="150" height="100">
<rect width="150" height="100" transform="matrix(-1 0 0 1 150 0)" fill="#6A00FF"/>
</mask>
<g mask="url(#mask0_5_30)">
<path fill-rule="evenodd" clip-rule="evenodd" d="M135.159 -6.28456C133.793 -1.21 133.084 5.89968 137.695 10.5104C137.695 10.5104 131.424 6.99352 129.624 -0.211441L108.418 23.0568C112.697 28.3552 115.742 34.6888 117.114 41.6208L113.644 41.3192C112.334 35.4704 109.728 30.108 106.145 25.5512L90.5552 42.6568L125.978 45.7368C125.429 34.8824 122.748 25.4904 117.936 17.5624L124.941 9.87568C133.753 19.8032 138.446 32.1344 139.022 46.8712L175 50L139.022 53.1288C138.446 67.8656 133.753 80.1968 124.941 90.124L117.936 82.4376C122.748 74.5096 125.429 65.1176 125.978 54.2632L90.5552 57.3432L106.144 74.4488C109.728 69.892 112.334 64.5296 113.644 58.6816L117.114 58.3792C115.741 65.3112 112.696 71.6448 108.418 76.9432L175 150L101.943 83.4184C96.4352 87.8664 89.8048 90.9816 82.5456 92.2712L82.9312 88.804C89.0712 87.5536 94.6968 84.8808 99.448 81.144L82.1776 65.404L77.7104 105.609C89.9336 105.096 100.175 101.174 108.434 93.844L114.514 99.3848C104.22 106.557 91.7648 110.31 77.1512 110.642L75 130L72.8488 110.642C58.2352 110.31 45.78 106.557 35.4856 99.3848L41.484 93.9184C49.7664 101.234 60.0344 105.133 72.2904 105.615L67.8224 65.404L50.5512 81.1448C55.3032 84.8808 60.9288 87.5536 67.0688 88.804L67.4544 92.2712C60.1952 90.9824 53.5648 87.8664 48.0568 83.4184L-25 150L41.5816 76.9432C37.3032 71.6448 34.2587 65.3112 32.8854 58.3792L36.356 58.6816C37.6664 64.5296 40.272 69.892 43.8552 74.4488L59.4448 57.3432L23.8551 54.248C24.4043 65.1584 27.1074 74.592 31.9642 82.548L25.059 90.124C16.2472 80.1968 11.5534 67.8656 10.9772 53.1288L-25 50L10.9772 46.8712C11.5534 32.1344 16.2472 19.8032 25.059 9.87568L31.9642 17.452C27.1074 25.408 24.4043 34.8416 23.8551 45.752L59.4448 42.6568L43.856 25.5512C40.272 30.108 37.6664 35.4704 36.356 41.3192L32.8854 41.6208C34.2592 34.6888 37.304 28.3552 41.5824 23.0568L20.3758 -0.211601C18.5746 6.99448 12.3049 10.5104 12.3049 10.5104C16.9162 5.89952 16.2072 -1.21048 14.841 -6.28464L-25 -50L18.7154 -10.159C23.79 -8.79272 30.8997 -8.084 35.5104 -12.6951C35.5104 -12.6951 31.9935 -6.4236 24.7886 -4.62408L48.0568 16.5824C53.5648 12.1336 60.1952 9.01816 67.4544 7.72888L67.0688 11.196C60.9288 12.4464 55.3032 15.12 50.552 18.856L67.8224 34.596L72.2904 -5.61552C60.0344 -5.13272 49.7664 -1.23384 41.484 6.08152L35.4856 0.61496C45.78 -6.55704 58.2352 -10.3096 72.8488 -10.6423L74.5736 -26.1626C67.648 -19.707 58.5912 -22.2552 58.5912 -22.2552C69.68 -22.2552 75 -38.2408 75 -38.2408L75.004 -38.2292C75.1672 -37.7459 80.4928 -22.2552 91.4088 -22.2552C91.4088 -22.2552 82.3512 -19.7066 75.4264 -26.1625L77.1512 -10.6423C91.7648 -10.3096 104.22 -6.55704 114.514 0.61496L108.434 6.15632C100.175 -1.17392 89.9336 -5.0956 77.7104 -5.60872L82.1776 34.596L99.4488 18.8552C94.6968 15.1192 89.0712 12.4464 82.9312 11.196L82.5456 7.72888C89.8048 9.0176 96.4352 12.1336 101.943 16.5816L125.211 -4.62424C118.006 -6.42536 114.49 -12.6951 114.49 -12.6951C119.101 -8.08384 126.21 -8.7928 131.285 -10.159L175 -50L135.159 -6.28456Z" fill="white"/>
</g>
</svg>
