<svg width="338" height="100" viewBox="0 0 338 100" fill="none" xmlns="http://www.w3.org/2000/svg">
<path d="M0 62.7503V62.3048H0.579516C1.35216 62.3048 2.01341 62.0304 2.56313 61.4801C3.11285 60.9298 3.4026 60.2688 3.4324 59.4957V34.8013C3.4026 34.0286 3.11285 33.3675 2.56313 32.8176C2.01341 32.2679 1.35216 31.9931 0.579516 31.9931H0V31.5474H12.0355C13.3727 31.5474 14.5837 31.7405 15.6684 32.1267C16.7531 32.5131 17.6669 33.0704 18.4098 33.7983C19.1527 34.5264 19.7247 35.4031 20.126 36.4283C20.5272 37.4539 20.7277 38.6195 20.7277 39.9281C20.7277 41.3533 20.3934 42.721 19.7247 44.0281C19.0561 45.3353 18.1498 46.399 17.0057 47.2149C15.8615 48.0322 14.5763 48.4409 13.1498 48.4409C13.6551 48.6489 14.2048 49.0723 14.7991 49.7126C15.3935 50.3515 15.9136 50.9682 16.3593 51.5613C16.3593 51.5613 16.56 51.8519 16.9611 52.4317C17.3623 53.0101 17.8674 53.7168 18.4767 54.5489C19.0859 55.381 19.7025 56.1983 20.3265 56.9994C20.9506 57.802 21.4856 58.4408 21.9313 58.9174C22.5259 59.571 23.1204 60.1508 23.715 60.6554C24.3081 61.1599 24.9557 61.5612 25.6536 61.8592C26.3514 62.1558 27.1319 62.3048 27.9935 62.3048V62.7503H25.5415C24.1753 62.7503 22.9935 62.5423 21.9981 62.1263C21.0027 61.7102 20.1631 61.1968 19.4797 60.589C18.7962 59.9796 18.2166 59.3924 17.7411 58.8274C17.652 58.7094 17.4068 58.3671 17.0057 57.802C16.6045 57.2384 16.129 56.5613 15.5793 55.7734C15.0294 54.987 14.4871 54.2066 13.9523 53.4335C13.4173 52.6619 12.9567 52.0009 12.5705 51.4506C12.1841 50.9003 11.9611 50.5816 11.9017 50.4916C11.3371 49.7495 10.7131 49.065 10.0296 48.4409C9.34607 47.8168 8.60308 47.5055 7.80078 47.5055V47.06C7.80078 47.06 8.03108 47.0673 8.49169 47.0821C8.95229 47.0969 9.50953 47.0895 10.1633 47.06C10.9359 47.0305 11.7829 46.911 12.7041 46.7029C13.6253 46.4949 14.4871 46.0641 15.2895 45.4105C16.0918 44.7569 16.701 43.7611 17.117 42.4244C17.2063 42.0969 17.2805 41.6882 17.34 41.1984C17.3994 40.7071 17.4143 40.2247 17.3845 39.7496C17.3549 37.7284 16.8422 36.1162 15.8468 34.9128C14.8512 33.7092 13.5213 33.0628 11.8571 32.9737C11.025 32.9143 10.1708 32.892 9.29414 32.9069C8.41748 32.9217 7.68187 32.9292 7.0876 32.9292H6.32986V59.4957C6.32986 60.2688 6.61209 60.9298 7.17671 61.4801C7.74133 62.0304 8.40996 62.3048 9.1826 62.3048H9.71756V62.7503H0Z" fill="white"/>
<path d="M47.2055 36.3614H46.76V35.5591C46.76 34.8459 46.5077 34.2292 46.0016 33.7092C45.5944 33.2894 45.1091 33.0293 44.5469 32.9291H35.1696V46.7029H42.7028C43.2973 46.6734 43.8034 46.4432 44.2194 46.0124C44.6355 45.5816 44.8435 45.0682 44.8435 44.4736V43.8496H45.2891V50.8929H44.8435V50.2246C44.8435 49.63 44.6355 49.118 44.2194 48.6872C43.8034 48.255 43.2973 48.041 42.7028 48.041H35.1696V61.3679H41.5446C43.1188 61.3679 44.4053 61.123 45.3997 60.6332C46.3956 60.1434 47.2055 59.4514 47.8296 58.5603C48.4537 57.6692 49.004 56.6586 49.4791 55.5285H49.9246L47.3398 62.7503H28.8403V62.3048H29.4201C30.1932 62.3048 30.8542 62.0303 31.403 61.48C31.9533 60.9297 32.2425 60.2688 32.2735 59.4957V34.8012C32.2735 34.0286 31.9902 33.3675 31.4251 32.8176C30.8616 32.2679 30.1932 31.993 29.4201 31.993H28.8846L28.8403 31.5473H41.7674C42.421 31.5473 43.1114 31.5026 43.8402 31.4135C44.5691 31.3244 45.2448 31.2204 45.8689 31.1015C46.4929 30.9827 46.9385 30.8638 47.2055 30.7449V36.3614Z" fill="white"/>
<path d="M68.6469 36.852H68.2456C68.2456 35.4253 67.7558 34.3036 66.7747 33.4863C65.7935 32.6691 64.6059 32.2605 63.2087 32.2605C61.574 32.2605 60.2521 32.7731 59.2415 33.7983C58.2309 34.8237 57.7248 36.0197 57.7248 37.3861C57.7248 37.9511 57.8517 38.6121 58.104 39.3704C58.3578 40.1287 58.8255 40.834 59.5085 41.4875L68.2898 49.6005C69.181 50.4326 69.7755 51.3237 70.0735 52.2753C70.3701 53.2255 70.5191 54.1476 70.5191 55.0387C70.5191 57.5055 69.7681 59.5105 68.2677 61.0566C66.7673 62.6013 64.7387 63.3744 62.1834 63.3744C61.4708 63.3744 60.6298 63.3007 59.6649 63.1517C58.6986 63.0026 57.7632 62.743 56.8559 62.3712C55.95 61.9994 55.199 61.517 54.6059 60.9224C54.5159 60.4473 54.4717 59.8528 54.4717 59.1402C54.4717 58.4261 54.5307 57.6766 54.6502 56.8888C54.7682 56.1009 54.932 55.381 55.14 54.7274H55.5413C55.3923 56.2426 55.5856 57.5645 56.1211 58.6931C56.6552 59.8232 57.4357 60.6775 58.461 61.2573C59.4864 61.8371 60.6534 62.0968 61.9606 62.0378C63.5953 61.9478 64.9983 61.3753 66.1727 60.3204C67.3471 59.2656 67.9328 57.8463 67.9328 56.0641C67.9328 55.2024 67.7853 54.422 67.4872 53.7241C67.1907 53.0248 66.7599 52.4229 66.1948 51.9183L57.6363 43.9839C56.7452 43.1518 56.1211 42.2385 55.7641 41.2427C55.4071 40.2468 55.23 39.3188 55.23 38.4572C55.23 37.209 55.5265 36.0048 56.1211 34.846C56.7157 33.6869 57.5994 32.7434 58.7738 32.0153C59.9467 31.2873 61.3808 30.9233 63.0745 30.9233C63.5495 30.9233 64.063 30.9529 64.6118 31.0124C65.1621 31.0718 65.6976 31.1536 66.217 31.2576C66.4029 31.2946 66.5829 31.3318 66.757 31.369H68.6469V36.852Z" fill="white"/>
<path fill-rule="evenodd" clip-rule="evenodd" d="M286.017 45.8117L286.02 45.8316V48.5087L286.017 48.5285L284.728 94.3408L283.439 48.5285L283.434 48.5087V45.8316L283.439 45.8117L284.728 0L286.017 45.8117Z" fill="white"/>
<path d="M192.778 49.7089L196.126 49.7505C196.346 51.6891 196.828 53.4432 197.57 55.0122C198.625 57.2415 200.096 58.9795 201.983 60.2276C203.87 61.4758 206.062 62.1308 208.559 62.1898C210.668 62.1898 212.622 61.7959 214.42 61.0081C216.217 60.2202 217.726 58.9278 218.945 57.1308C220.139 55.3678 220.906 53.0112 221.242 50.0626L221.605 50.0671L221.084 56.8845C220.311 58.1621 219.339 59.2996 218.165 60.2955C216.99 61.2913 215.609 62.0777 214.019 62.6575C212.428 63.2373 210.609 63.5265 208.559 63.5265C205.468 63.497 202.719 62.8139 200.311 61.4757C197.905 60.1391 196.025 58.2595 194.672 55.837C193.668 54.037 193.036 51.9942 192.778 49.7089ZM78.3644 48.2876L81.262 48.3236V51.1605C81.262 53.3002 81.656 55.1878 82.4423 56.821C83.2302 58.4557 84.3382 59.726 85.7633 60.6333C87.19 61.5392 88.8394 61.9921 90.7117 61.9921C92.7019 61.9921 94.4414 61.5613 95.9271 60.6997C97.4127 59.8381 98.5724 58.6416 99.4045 57.1117C100.237 55.5802 100.653 53.7906 100.653 51.74V48.5643L102.748 48.5905V51.74C102.748 54.0577 102.249 56.0863 101.253 57.8242C100.259 59.5637 98.8541 60.9225 97.0409 61.9036C95.2292 62.8832 93.1194 63.3745 90.7117 63.3745C88.2449 63.3745 86.0835 62.8906 84.226 61.9257C82.3685 60.9594 80.9271 59.608 79.9017 57.8685C78.8764 56.1306 78.3644 54.1019 78.3644 51.7846V48.2876ZM307.617 36.4505C307.617 34.935 307.55 33.6274 307.416 32.5278C307.283 31.4284 307.215 30.8785 307.215 30.8785H307.661L331.956 56.8033V34.7121C331.926 33.9395 331.65 33.2931 331.131 32.773C330.612 32.253 329.964 31.993 329.192 31.993H328.345V31.5472H337.528V31.993H336.725C335.982 31.993 335.343 32.253 334.809 32.773C334.273 33.2931 333.992 33.9395 333.962 34.7121V57.6693C333.962 58.6195 333.992 59.5327 334.051 60.4105C334.11 61.2869 334.177 61.9995 334.251 62.5498C334.325 63.1001 334.362 63.3745 334.362 63.3745H333.962L309.629 37.4507L309.663 59.5858H309.667C309.667 60.3279 309.934 60.9668 310.47 61.5023C311.006 62.0364 311.644 62.3049 312.387 62.3049H313.233V62.7505H304.051V62.3049H304.898C305.641 62.3049 306.28 62.0364 306.816 61.5023C307.35 60.9668 307.617 60.3279 307.617 59.5858V36.4505ZM268.993 50.6558L272.415 50.6983C272.671 52.2402 273.105 53.6579 273.717 54.9503C274.772 57.178 276.243 58.9175 278.13 60.1642C279.648 61.1689 281.363 61.7694 283.275 61.9656L283.313 63.3288C280.73 63.1562 278.417 62.4952 276.37 61.3459C273.962 59.9945 272.083 58.1001 270.731 55.6629C269.89 54.1491 269.312 52.4799 268.993 50.6558ZM300.743 47.7851C300.66 50.7607 299.988 53.3867 298.725 55.6629C297.372 58.1001 295.492 59.9945 293.086 61.3459C291.047 62.4908 288.734 63.1503 286.141 63.3258L286.18 61.9626C288.099 61.7635 289.815 61.1644 291.324 60.1642C293.211 58.9175 294.682 57.178 295.737 54.9503C296.69 52.936 297.214 50.6194 297.305 47.9999L300.743 47.7851ZM236.207 50.2485L239.104 50.2845V59.5401C239.134 60.3132 239.424 60.9741 239.973 61.5244C240.524 62.0748 241.185 62.3492 241.958 62.3492H242.536V62.7947H232.775V62.3492H233.355C234.126 62.3492 234.787 62.0748 235.338 61.5244C235.888 60.9741 236.177 60.3132 236.207 59.5401V50.2485ZM171.26 49.4416L174.158 49.4776V61.3681H180.531C182.107 61.3681 183.392 61.1231 184.388 60.6333C185.384 60.142 186.192 59.4516 186.818 58.5604C187.442 57.6693 187.991 56.6587 188.466 55.5286H188.913L186.326 62.7505H167.827V62.3049H168.407C169.18 62.3049 169.841 62.029 170.391 61.4802C170.94 60.9299 171.231 60.2689 171.26 59.4958V49.4416ZM149.766 49.1745L153.289 49.2184C153.451 49.3655 153.618 49.5298 153.786 49.7119C154.381 50.3507 154.901 50.9674 155.347 51.5617C155.347 51.5617 155.548 51.8514 155.949 52.431C156.35 53.0105 156.855 53.7169 157.464 54.549C158.073 55.3796 158.69 56.1984 159.314 56.9995C159.938 57.8021 160.472 58.441 160.918 58.9175C161.512 59.5711 162.107 60.1494 162.702 60.6555C163.296 61.16 163.942 61.5613 164.64 61.8593C165.34 62.1559 166.118 62.3049 166.98 62.3049V62.7505H164.53C163.162 62.7505 161.982 62.5424 160.986 62.1264C159.99 61.7103 159.15 61.1969 158.467 60.5891C157.783 59.9797 157.204 59.3926 156.728 58.8275C156.639 58.7095 156.394 58.3672 155.993 57.8021C155.592 57.2371 155.117 56.5614 154.566 55.7735C154.016 54.9872 153.475 54.2067 152.939 53.4339C152.405 52.6613 151.943 52 151.558 51.4503C151.172 50.9006 150.949 50.581 150.888 50.4919C150.537 50.0298 150.164 49.5907 149.766 49.1745ZM142.42 49.0834L145.317 49.1194V59.4958C145.317 60.2689 145.599 60.9299 146.164 61.4802C146.728 62.029 147.398 62.3049 148.169 62.3049H148.705V62.7505H138.987V62.3049H139.567C140.34 62.3049 141.001 62.029 141.551 61.4802C142.1 60.9299 142.39 60.2689 142.42 59.4958V49.0834ZM120.568 48.8118L124.007 48.8546C124.307 49.0754 124.62 49.3612 124.946 49.7119C125.54 50.3507 126.06 50.9674 126.507 51.5617C126.507 51.5617 126.706 51.8514 127.107 52.431C127.508 53.0105 128.015 53.7169 128.624 54.549C129.233 55.3796 129.85 56.1984 130.474 56.9995C131.097 57.8021 131.632 58.441 132.078 58.9175C132.672 59.5711 133.267 60.1494 133.861 60.6555C134.456 61.16 135.102 61.5613 135.8 61.8593C136.498 62.1559 137.278 62.3049 138.14 62.3049V62.7505H135.689C134.322 62.7505 133.14 62.5424 132.146 62.1264C131.15 61.7103 130.31 61.1969 129.627 60.5891C128.943 59.9797 128.363 59.3926 127.888 58.8275C127.799 58.7095 127.553 58.3672 127.153 57.8021C126.752 57.2371 126.275 56.5614 125.726 55.7735C125.176 54.9872 124.633 54.2067 124.099 53.4339C123.563 52.6613 123.103 52 122.717 51.4503C122.331 50.9006 122.107 50.581 122.048 50.4919C121.594 49.8932 121.1 49.3332 120.568 48.8118ZM113.58 48.725L116.477 48.761V59.4958C116.477 60.2689 116.759 60.9299 117.324 61.4802C117.888 62.029 118.556 62.3049 119.329 62.3049H119.865V62.7505H110.146V62.3049H110.726C111.499 62.3049 112.16 62.029 112.709 61.4802C113.26 60.9299 113.549 60.2689 113.58 59.4958V48.725ZM257.514 50.5133L260.411 50.5493V59.4958C260.441 60.2689 260.731 60.9299 261.28 61.4802C261.831 62.029 262.492 62.3049 263.265 62.3049H263.844V62.7505H254.082V62.3049H254.662C255.433 62.3049 256.094 62.029 256.645 61.4802C257.195 60.9299 257.484 60.2689 257.514 59.4958V50.5133ZM183.745 49.5966L184.276 49.6033V50.893H183.83V50.2244C183.83 50.004 183.802 49.7946 183.745 49.5966ZM286.14 30.9709C288.732 31.1463 291.047 31.8065 293.086 32.9514C295.492 34.3034 297.372 36.1979 298.725 38.6348C299.98 40.8978 300.653 43.507 300.742 46.462L297.304 46.247C297.207 43.6479 296.684 41.3484 295.737 39.348C294.682 37.1191 293.211 35.3807 291.324 34.1326C289.814 33.1335 288.099 32.5343 286.178 32.335L286.14 30.9709ZM78.3644 45.9648V34.2218C78.3644 33.568 78.1343 33.0331 77.674 32.6171C77.2122 32.201 76.656 31.993 76.0024 31.993H75.2883V31.5472H84.3381V31.993H83.6241C82.9705 31.993 82.4128 32.201 81.9525 32.6171C81.4922 33.0331 81.262 33.568 81.262 34.2218V45.9301L78.3644 45.9648ZM100.653 45.6976V34.2218C100.653 33.568 100.422 33.0331 99.9607 32.6171C99.5004 32.201 98.9441 31.993 98.2891 31.993H97.5765V31.5472H105.822V31.993H105.11C104.456 31.993 103.898 32.201 103.438 32.6171C102.978 33.0331 102.748 33.568 102.748 34.2218V45.6725L100.653 45.6976ZM113.58 45.5427V34.8012C113.549 34.0286 113.26 33.3675 112.709 32.8176C112.16 32.2679 111.499 31.993 110.726 31.993H110.146V31.5472H122.182C123.519 31.5472 124.73 31.7404 125.815 32.1267C126.899 32.5131 127.814 33.0702 128.556 33.7983C129.3 34.5264 129.872 35.403 130.273 36.4282C130.675 37.4535 130.874 38.6199 130.874 39.9275C130.874 41.3538 130.54 42.7209 129.872 44.0284C129.629 44.5037 129.354 44.9466 129.049 45.3572L125.447 45.4004C126.244 44.7466 126.85 43.7543 127.264 42.4238C127.354 42.0968 127.427 41.6882 127.486 41.1979C127.545 40.7075 127.562 40.2246 127.531 39.7491C127.501 37.7285 126.989 36.1162 125.993 34.9127C124.997 33.7092 123.668 33.0628 122.004 32.9737C121.172 32.9142 120.318 32.892 119.441 32.9069C118.565 32.9216 117.829 32.9291 117.234 32.9291H116.477V45.508L113.58 45.5427ZM142.42 45.197V34.8012C142.39 34.0286 142.1 33.3675 141.551 32.8176C141.001 32.2679 140.34 31.993 139.567 31.993H138.987V31.5472H151.023C152.359 31.5472 153.571 31.7404 154.655 32.1267C155.741 32.5131 156.654 33.0702 157.396 33.7983C158.14 34.5264 158.712 35.403 159.113 36.4282C159.515 37.4535 159.715 38.6199 159.715 39.9275C159.715 41.3538 159.381 42.7209 158.712 44.0284C158.537 44.3721 158.345 44.6988 158.135 45.0086L154.667 45.0502C155.279 44.4109 155.759 43.5355 156.104 42.4238C156.194 42.0968 156.268 41.6882 156.327 41.1979C156.387 40.7075 156.402 40.2246 156.372 39.7491C156.343 37.7285 155.829 36.1162 154.833 34.9127C153.839 33.7092 152.508 33.0628 150.844 32.9737C150.012 32.9142 149.158 32.892 148.281 32.9069C147.405 32.9216 146.669 32.9291 146.074 32.9291H145.317V45.1622L142.42 45.197ZM171.26 44.8512V34.8012C171.26 34.0286 170.978 33.3675 170.413 32.8176C169.848 32.2679 169.18 31.993 168.407 31.993H167.873L167.827 31.5472H180.755C181.409 31.5472 182.1 31.5026 182.827 31.4135C183.556 31.3244 184.231 31.2204 184.855 31.1015C185.48 30.9826 185.925 30.8638 186.192 30.7449V36.3614H185.747V35.5591C185.747 34.8458 185.494 34.2292 184.99 33.7092C184.581 33.2894 184.096 33.0293 183.534 32.9291H174.158V44.8165L171.26 44.8512ZM184.276 44.6952L183.82 44.7007C183.827 44.6265 183.83 44.5511 183.83 44.4742V43.8501H184.276V44.6952ZM192.808 44.593C193.079 42.441 193.693 40.4984 194.65 38.765C195.988 36.3431 197.868 34.456 200.289 33.1038C202.712 31.7518 205.558 31.0756 208.826 31.0756C211.025 31.0756 213.008 31.3654 214.777 31.9449C216.545 32.5244 218.082 33.245 219.391 34.1069L220.282 40.3921H219.88C219.227 37.7769 217.889 35.7932 215.869 34.4412C213.848 33.0891 211.5 32.4129 208.826 32.4129C206.211 32.4129 203.945 33.0296 202.029 34.2629C200.111 35.4961 198.625 37.2198 197.57 39.4337C196.843 40.9599 196.366 42.6663 196.14 44.553L192.808 44.593ZM236.207 44.0726V32.8846H227.827C227.083 32.9142 226.46 33.1817 225.954 33.6869C225.45 34.192 225.196 34.8161 225.196 35.5591V36.3168L224.751 36.3614V30.7449C225.049 30.8638 225.501 30.9826 226.111 31.1015C226.72 31.2204 227.396 31.3244 228.139 31.4135C228.882 31.5026 229.565 31.5472 230.189 31.5472H245.122C245.776 31.5472 246.466 31.5026 247.195 31.4135C247.922 31.3244 248.598 31.2204 249.224 31.1015C249.848 30.9826 250.293 30.8638 250.56 30.7449V36.3614L250.115 36.3168V35.5591C250.115 34.8161 249.855 34.192 249.334 33.6869C248.815 33.1817 248.198 32.9142 247.484 32.8846H239.104V44.038L236.207 44.0726ZM257.514 43.8173V34.8012C257.484 34.0286 257.195 33.3675 256.645 32.8176C256.094 32.2679 255.433 31.993 254.662 31.993H254.082V31.5472H263.844V31.993H263.265C262.492 31.993 261.831 32.2679 261.28 32.8176C260.731 33.3675 260.441 34.0286 260.411 34.8012V43.7826L257.514 43.8173ZM283.315 30.9687L283.276 32.3319C281.364 32.5283 279.648 33.1285 278.13 34.1326C276.243 35.3807 274.772 37.1191 273.717 39.348C273.101 40.6511 272.664 42.0813 272.407 43.6387L268.988 43.6797C269.303 41.8413 269.885 40.1596 270.731 38.6348C272.083 36.1979 273.962 34.3034 276.37 32.9514C278.417 31.8018 280.731 31.1409 283.315 30.9687Z" fill="white"/>
<path fill-rule="evenodd" clip-rule="evenodd" d="M285.957 43.6613L294.119 37.7354L287.999 46.1606L303.626 47.1373L288.019 48.1131L294.119 56.5137L285.961 50.5896L284.73 94.3395L283.499 50.5896L275.341 56.5137L280.268 49.7306L70.5081 47.1245L280.332 44.6095L275.341 37.7354L283.499 43.6613L284.73 0.000244141L285.957 43.6613ZM268.994 50.6563L272.418 50.699C272.674 52.2405 273.107 53.6576 273.719 54.9501C274.774 57.1788 276.245 58.9171 278.133 60.1653C279.649 61.1693 281.364 61.7694 283.278 61.9659L283.316 63.3291C280.733 63.157 278.418 62.496 276.373 61.3466C273.963 59.9945 272.084 58.1001 270.731 55.6633C269.892 54.1493 269.315 52.4802 268.994 50.6563ZM300.744 47.7855C300.661 50.7611 299.988 53.3871 298.725 55.6633C297.375 58.1001 295.494 59.9945 293.086 61.3466C291.051 62.4912 288.733 63.1516 286.143 63.3269L286.182 61.963C288.102 61.7636 289.817 61.1645 291.327 60.1653C293.215 58.9171 294.686 57.1788 295.741 54.9501C296.693 52.9364 297.215 50.6198 297.308 48.0003L300.744 47.7855ZM286.143 30.9712C288.733 31.1469 291.051 31.8069 293.086 32.9519C295.494 34.3039 297.375 36.1984 298.725 38.6352C299.981 40.8982 300.655 43.5075 300.744 46.4623L297.305 46.2475C297.209 43.6482 296.686 41.3489 295.741 39.3484C294.686 37.1196 293.215 35.3813 291.327 34.1331C289.817 33.1339 288.102 32.5348 286.182 32.3354L286.143 30.9712ZM283.316 30.9693L283.278 32.3326C281.367 32.5287 279.649 33.1288 278.133 34.1331C276.245 35.3813 274.774 37.1196 273.719 39.3484C273.103 40.6517 272.664 42.0817 272.411 43.6392L268.988 43.6803C269.305 41.8416 269.885 40.16 270.731 38.6352C272.084 36.1984 273.963 34.3039 276.373 32.9519C278.418 31.8024 280.733 31.1414 283.316 30.9693Z" fill="white"/>
<path d="M310.737 68.1731V68.6175H310.025C309.371 68.6175 308.813 68.8258 308.352 69.2423C307.893 69.6589 307.662 70.1935 307.662 70.8462V88.3644C307.662 90.6833 307.165 92.7103 306.169 94.4504C305.172 96.1887 303.768 97.5483 301.956 98.529C300.144 99.5097 298.033 100 295.626 100C293.159 100 290.998 99.5162 289.14 98.5503C287.283 97.5843 285.842 96.233 284.817 94.4946C283.792 92.7563 283.279 90.7276 283.279 88.4087V70.8462C283.279 70.1935 283.049 69.6589 282.588 69.2423C282.127 68.8258 281.57 68.6175 280.917 68.6175H280.204V68.1731H289.251V68.6175H288.54C287.885 68.6175 287.328 68.8258 286.867 69.2423C286.406 69.6589 286.176 70.1935 286.176 70.8462V87.7855C286.176 89.9257 286.57 91.8116 287.357 93.4467C288.144 95.0817 289.251 96.3511 290.678 97.258C292.105 98.1649 293.755 98.6175 295.626 98.6175C297.617 98.6175 299.355 98.1862 300.841 97.3252C302.327 96.4626 303.486 95.2671 304.319 93.737C305.151 92.2052 305.567 90.416 305.567 88.3644V70.8462C305.567 70.1935 305.336 69.6589 304.875 69.2423C304.415 68.8258 303.859 68.6175 303.204 68.6175H302.491V68.1731H310.737ZM275.746 86.3587L275.212 93.3581C274.438 94.6357 273.465 95.7722 272.291 96.7676C271.117 97.7631 269.736 98.5503 268.145 99.1308C266.556 99.7098 264.735 100 262.685 100C259.594 99.9689 256.846 99.2866 254.439 97.9484C252.031 96.6118 250.152 94.7324 248.8 92.3102C247.447 89.8879 246.771 87.0278 246.771 83.7298C246.771 80.4893 247.44 77.6587 248.777 75.2381C250.115 72.8158 251.994 70.9282 254.416 69.5769C256.839 68.2239 259.684 67.5482 262.953 67.5482C265.152 67.5482 267.135 67.8385 268.903 68.4174C270.672 68.9963 272.209 69.7179 273.518 70.5789L274.408 76.8649H274.008C273.354 74.2492 272.017 72.2664 269.995 70.9134C267.974 69.5621 265.628 68.8848 262.953 68.8848C260.337 68.8848 258.072 69.5014 256.155 70.7347C254.238 71.968 252.752 73.6916 251.697 75.9055C250.642 78.1195 250.115 80.7123 250.115 83.6839C250.115 86.6556 250.642 89.2566 251.697 91.4853C252.752 93.714 254.223 95.4524 256.111 96.7004C257.997 97.9484 260.189 98.6028 262.685 98.6618C264.794 98.6618 266.749 98.2682 268.547 97.481C270.344 96.6938 271.853 95.3999 273.071 93.6025C274.29 91.8051 275.062 89.3894 275.389 86.3587H275.746ZM321.392 96.1215C321.421 96.8939 321.711 97.5548 322.261 98.1042C322.81 98.6553 323.471 98.9291 324.244 98.9291H324.824V99.3752H315.061V98.9291H315.64C316.414 98.9291 317.075 98.6553 317.625 98.1042C318.174 97.5548 318.464 96.8939 318.494 96.1215V71.4268C318.494 70.6527 318.212 69.9918 317.648 69.4424C317.082 68.893 316.414 68.6175 315.64 68.6175H315.106L315.061 68.1731H326.695C328.598 68.1731 330.233 68.5142 331.599 69.198C332.967 69.8803 334.021 70.8692 334.764 72.1615C335.507 73.4538 335.878 74.9921 335.878 76.7747C335.878 78.1425 335.61 79.3675 335.076 80.4532C334.541 81.5372 333.828 82.4507 332.937 83.1936C332.045 83.9365 331.035 84.4941 329.905 84.8664C328.776 85.237 327.61 85.378 326.407 85.2895C325.203 85.2009 324.037 84.8582 322.907 84.2645V83.8184C322.907 83.8184 323.159 83.8561 323.665 83.9299C324.17 84.0037 324.816 84.0185 325.603 83.9742C326.392 83.9299 327.223 83.7659 328.099 83.4839C328.976 83.2018 329.793 82.7032 330.551 81.9915C331.31 81.2781 331.881 80.2826 332.268 79.0035C332.356 78.6771 332.43 78.2687 332.491 77.7784C332.55 77.288 332.565 76.8042 332.535 76.3303C332.506 74.2787 331.971 72.6289 330.93 71.3825C329.89 70.1328 328.419 69.5096 326.518 69.5096H321.392V96.1215Z" fill="white"/>
<path fill-rule="evenodd" clip-rule="evenodd" d="M237.155 95.6524H112.432L88.6754 71.8958H237.155V95.6524ZM155.47 91.7329V91.5279H155.811C156.068 91.5279 156.282 91.4262 156.447 91.2212C156.615 91.0179 156.698 90.7932 156.698 90.5505V90.4799L155.667 79.1149L150.899 89.7321C150.899 89.7321 150.842 89.8617 150.729 90.1191C150.614 90.3766 150.497 90.6833 150.376 91.0392C150.255 91.3967 150.171 91.7329 150.125 92.051H149.899L144.09 79.4544L143.098 90.4717V90.5505C143.098 90.7932 143.185 91.0179 143.36 91.2212C143.534 91.4262 143.742 91.5279 143.985 91.5279H144.326V91.7329H139.915V91.5066H140.279C140.687 91.5066 141.051 91.3803 141.369 91.131C141.689 90.8801 141.878 90.5275 141.938 90.0732H141.95L143.644 75.4955H143.872L150.214 89.2172L156.426 75.4955H156.629L158.394 90.147C158.479 90.5669 158.671 90.8949 158.973 91.131C159.291 91.3803 159.647 91.5066 160.04 91.5066H160.405V91.7329H155.47ZM215.585 77.4733L215.577 77.4749C215.35 76.9584 215.047 76.591 214.668 76.3712C214.287 76.1515 213.925 76.0416 213.576 76.0416H213.394V75.8137H218.51V76.0416H218.305C218.018 76.0416 217.764 76.163 217.544 76.4057C217.325 76.6484 217.298 76.9961 217.464 77.452H217.451L222.215 89.3713L227.227 77.2929C227.332 76.9157 227.284 76.6189 227.084 76.4057C226.856 76.163 226.599 76.0416 226.312 76.0416H226.107V75.8137H230.677V76.0416H230.472C230.139 76.0416 229.784 76.1515 229.405 76.3712C229.026 76.591 228.714 76.9584 228.472 77.4749L228.467 77.4733L223.014 89.7091C223.014 89.7091 222.971 89.8043 222.889 89.9929C222.806 90.1831 222.707 90.4144 222.592 90.6866C222.479 90.9605 222.381 91.2261 222.297 91.4836C222.213 91.7411 222.172 91.9297 222.172 92.051H221.967L215.585 77.4733ZM176.642 91.7329V91.5279H176.983C177.242 91.5279 177.454 91.4262 177.621 91.2212C177.787 91.0179 177.87 90.7932 177.87 90.5505V90.4799L176.839 79.1149L172.071 89.7321C172.071 89.7321 172.014 89.8617 171.901 90.1191C171.788 90.3766 171.669 90.6833 171.548 91.0392C171.427 91.3967 171.343 91.7329 171.299 92.051H171.071L165.264 79.4544L164.272 90.4717V90.5505C164.272 90.7932 164.358 91.0179 164.532 91.2212C164.706 91.4262 164.916 91.5279 165.157 91.5279H165.498V91.7329H161.087V91.5066H161.451C161.861 91.5066 162.225 91.3803 162.543 91.131C162.861 90.8801 163.051 90.5275 163.11 90.0732H163.122L164.818 75.4955H165.044L171.387 89.2172L177.598 75.4955H177.803L179.568 90.147C179.651 90.5669 179.843 90.8949 180.145 91.131C180.463 91.3803 180.819 91.5066 181.214 91.5066H181.578V91.7329H176.642ZM191.676 91.7329V91.5066H191.948C192.266 91.5066 192.528 91.3541 192.733 91.0507C192.937 90.7473 192.942 90.4291 192.743 90.0962H192.745L189.255 84.5892L185.742 90.1273C185.622 90.3307 185.591 90.5357 185.649 90.744C185.709 90.9637 185.827 91.1458 186.001 91.2901C186.175 91.4344 186.36 91.5066 186.559 91.5066H186.854V91.7329H181.691V91.5066H182.01C182.495 91.5066 182.943 91.3688 183.351 91.0966C183.71 90.8571 184.005 90.5898 184.235 90.2913L188.676 83.6757L184.64 77.3109C184.406 76.9912 184.1 76.7042 183.727 76.4516C183.325 76.1777 182.882 76.0416 182.397 76.0416H182.078V75.8137H187.582V76.0416H187.308C187.111 76.0416 186.926 76.1138 186.752 76.2581C186.577 76.4008 186.464 76.5828 186.41 76.8026C186.357 77.024 186.392 77.2388 186.513 77.452H186.51L189.627 82.3489L192.73 77.4503L192.722 77.452C192.858 77.2388 192.899 77.024 192.846 76.8026C192.794 76.5828 192.682 76.4008 192.517 76.2581C192.35 76.1138 192.161 76.0416 191.948 76.0416H191.676V75.8137H196.792V76.0416H196.474C196.003 76.0416 195.567 76.1777 195.165 76.4516C194.78 76.7124 194.462 77.0092 194.209 77.3405L190.198 83.246L194.673 90.2766C194.908 90.5882 195.213 90.8653 195.587 91.1081C195.995 91.3737 196.436 91.5066 196.905 91.5066H197.064C197.55 91.5066 197.998 91.3688 198.406 91.0966C198.765 90.8571 199.06 90.5898 199.29 90.2913L203.731 83.6757L199.697 77.3109C199.46 76.9912 199.155 76.7042 198.782 76.4516C198.38 76.1777 197.937 76.0416 197.452 76.0416H197.133V75.8137H202.637V76.0416H202.363C202.166 76.0416 201.981 76.1138 201.807 76.2581C201.632 76.4008 201.519 76.5828 201.466 76.8026C201.412 77.024 201.446 77.2388 201.568 77.452H201.565L204.682 82.3489L207.785 77.4503L207.777 77.452C207.913 77.2388 207.954 77.024 207.901 76.8026C207.849 76.5828 207.739 76.4008 207.572 76.2581C207.405 76.1138 207.216 76.0416 207.003 76.0416H206.73V75.8137H211.847V76.0416H211.529C211.058 76.0416 210.622 76.1777 210.22 76.4516C209.837 76.7124 209.517 77.0092 209.264 77.3405L205.253 83.246L209.728 90.2766C209.963 90.5882 210.268 90.8653 210.642 91.1081C211.052 91.3737 211.491 91.5066 211.96 91.5066H212.279V91.7329H206.73V91.5066H207.003C207.321 91.5066 207.583 91.3541 207.788 91.0507C207.993 90.7473 207.997 90.4291 207.8 90.0962L204.31 84.5892L200.797 90.1273C200.677 90.3307 200.646 90.5357 200.704 90.744C200.764 90.9637 200.882 91.1458 201.056 91.2901C201.23 91.4344 201.417 91.5066 201.614 91.5066H201.909V91.7329H191.676Z" fill="white"/>
</svg>
