<svg width="100" height="100" viewBox="0 0 100 100" fill="none" xmlns="http://www.w3.org/2000/svg">
<path fill-rule="evenodd" clip-rule="evenodd" d="M66.7092 36.5284C68.8484 39.1776 70.3708 42.3444 71.0572 45.8104L69.322 45.6596C68.6668 42.7352 67.364 40.054 65.5724 37.7756L57.7776 46.3284L75.4888 47.8684C75.2144 42.4412 73.874 37.7452 71.468 33.7812L74.9704 29.9378C79.3764 34.9016 81.7232 41.0672 82.0112 48.4356L100 50L82.0112 51.5644C81.7232 58.9328 79.3764 65.0984 74.9704 70.062L71.468 66.2188C73.874 62.2548 75.2144 57.5588 75.4888 52.1316L57.7776 53.6716L65.572 62.2244C67.364 59.946 68.6668 57.2648 69.322 54.3408L71.0572 54.1896C70.3704 57.6556 68.848 60.8224 66.7092 63.4716L100 100L63.4716 66.7092C60.7176 68.9332 57.4024 70.4908 53.7728 71.1356L53.9656 69.402C57.0356 68.7768 59.8484 67.4404 62.224 65.572L53.5888 57.702L51.3552 77.8044C57.4668 77.548 62.5876 75.5868 66.7172 71.922L69.7572 74.6924C64.61 78.2784 58.3824 80.1548 51.0756 80.3212L50 90L48.9244 80.3212C41.6176 80.1548 35.39 78.2784 30.2428 74.6924L33.242 71.9592C37.3832 75.6168 42.5172 77.5664 48.6452 77.8076L46.4112 57.702L37.7756 65.5724C40.1516 67.4404 42.9644 68.7768 46.0344 69.402L46.2272 71.1356C42.5976 70.4912 39.2824 68.9332 36.5284 66.7092L0 100L33.2908 63.4716C31.1516 60.8224 29.6294 57.6556 28.9427 54.1896L30.678 54.3408C31.3332 57.2648 32.636 59.946 34.4276 62.2244L42.2224 53.6716L24.4276 52.124C24.7022 57.5792 26.0537 62.296 28.4821 66.274L25.0295 70.062C20.6236 65.0984 18.2767 58.9328 17.9886 51.5644L0 50L17.9886 48.4356C18.2767 41.0672 20.6236 34.9016 25.0295 29.9378L28.4821 33.726C26.0537 37.704 24.7022 42.4208 24.4276 47.876L42.2224 46.3284L34.428 37.7756C32.636 40.054 31.3332 42.7352 30.678 45.6596L28.9427 45.8104C29.6296 42.3444 31.152 39.1776 33.2912 36.5284L0 0L36.5284 33.2912C39.2824 31.0668 42.5976 29.5091 46.2272 28.8644L46.0344 30.598C42.9644 31.2232 40.1516 32.56 37.776 34.428L46.4112 42.298L48.6452 22.1922C42.5172 22.4336 37.3832 24.3831 33.242 28.0408L30.2428 25.3075C35.39 21.7215 41.6176 19.8452 48.9244 19.6788L50 10L51.0756 19.6788C58.3824 19.8452 64.61 21.7215 69.7572 25.3075L66.7172 28.0782C62.5876 24.413 57.4668 22.4522 51.3552 22.1956L53.5888 42.298L62.2244 34.4276C59.8484 32.5596 57.0356 31.2232 53.9656 30.598L53.7728 28.8644C57.4024 29.5088 60.7176 31.0668 63.4716 33.2908L100 0L66.7092 36.5284Z" fill="white"/>
</svg>
