<svg width="500" height="500" viewBox="0 0 500 500" fill="none" xmlns="http://www.w3.org/2000/svg">
<path fill-rule="evenodd" clip-rule="evenodd" d="M333.546 182.642C344.242 195.888 351.854 211.722 355.286 229.052L346.61 228.298C343.334 213.676 336.82 200.27 327.862 188.878L288.888 231.642L377.444 239.342C376.072 212.206 369.37 188.726 357.34 168.906L374.852 149.689C396.882 174.508 408.616 205.336 410.056 242.178L500 250L410.056 257.822C408.616 294.664 396.882 325.492 374.852 350.31L357.34 331.094C369.37 311.274 376.072 287.794 377.444 260.658L288.888 268.358L327.86 311.122C336.82 299.73 343.334 286.324 346.61 271.704L355.286 270.948C351.852 288.278 344.24 304.112 333.546 317.358L500 500L317.358 333.546C303.588 344.666 287.012 352.454 268.864 355.678L269.828 347.01C285.178 343.884 299.242 337.202 311.12 327.86L267.944 288.51L256.776 389.022C287.334 387.74 312.938 377.934 333.586 359.61L348.786 373.462C323.05 391.392 291.912 400.774 255.378 401.606L250 450L244.622 401.606C208.088 400.774 176.95 391.392 151.214 373.462L166.21 359.796C186.916 378.084 212.586 387.832 243.226 389.038L232.056 288.51L188.878 327.862C200.758 337.202 214.822 343.884 230.172 347.01L231.136 355.678C212.988 352.456 196.412 344.666 182.642 333.546L0 500L166.454 317.358C155.758 304.112 148.147 288.278 144.714 270.948L153.39 271.704C156.666 286.324 163.18 299.73 172.138 311.122L211.112 268.358L122.138 260.62C123.511 287.896 130.268 311.48 142.411 331.37L125.148 350.31C103.118 325.492 91.3836 294.664 89.943 257.822L0 250L89.943 242.178C91.3836 205.336 103.118 174.508 125.148 149.689L142.411 168.63C130.268 188.52 123.511 212.104 122.138 239.38L211.112 231.642L172.14 188.878C163.18 200.27 156.666 213.676 153.39 228.298L144.714 229.052C148.148 211.722 155.76 195.888 166.456 182.642L0 0L182.642 166.456C196.412 155.334 212.988 147.545 231.136 144.322L230.172 152.99C214.822 156.116 200.758 162.8 188.88 172.14L232.056 211.49L243.226 110.961C212.586 112.168 186.916 121.915 166.21 140.204L151.214 126.537C176.95 108.607 208.088 99.226 244.622 98.3942L250 50L255.378 98.3942C291.912 99.226 323.05 108.607 348.786 126.537L333.586 140.391C312.938 122.065 287.334 112.261 256.776 110.978L267.944 211.49L311.122 172.138C299.242 162.798 285.178 156.116 269.828 152.99L268.864 144.322C287.012 147.544 303.588 155.334 317.358 166.454L500 0L333.546 182.642Z" fill="white" fill-opacity="0.5"/>
</svg>
