<svg width="297" height="100" viewBox="0 0 297 100" fill="none" xmlns="http://www.w3.org/2000/svg">
<g clip-path="url(#clip0_467_478)">
<g filter="url(#filter0_d_467_478)">
<path fill-rule="evenodd" clip-rule="evenodd" d="M201.662 42.9405L201.396 46.42C201.012 47.0556 200.529 47.6212 199.946 48.1156C199.363 48.6111 198.676 49.0025 197.886 49.2908C197.097 49.5791 196.193 49.7222 195.174 49.7222C193.639 49.7082 192.273 49.3679 191.078 48.7032C189.882 48.0386 188.948 47.1036 188.277 45.8994C187.605 44.6952 187.269 43.2728 187.269 41.6326C187.269 40.022 187.601 38.6146 188.266 37.4103C188.93 36.206 189.864 35.2677 191.067 34.5954C192.27 33.9231 193.683 33.5869 195.307 33.5869C196.399 33.5869 197.385 33.731 198.263 34.0191C199.141 34.3073 199.905 34.6655 200.555 35.0941L200.998 38.2193H200.798C200.473 36.919 199.809 35.9326 198.805 35.2603C197.802 34.588 196.635 34.2518 195.307 34.2518C194.008 34.2518 192.882 34.5584 191.93 35.1716C190.978 35.7849 190.24 36.6419 189.716 37.7427C189.192 38.8436 188.93 40.1328 188.93 41.6105C188.93 43.0876 189.192 44.3809 189.716 45.489C190.24 46.5971 190.971 47.462 191.908 48.0826C192.845 48.7032 193.934 49.0285 195.174 49.0576C196.222 49.0576 197.193 48.8614 198.086 48.47C198.979 48.0786 199.728 47.436 200.333 46.5421C200.938 45.6482 201.322 44.448 201.485 42.9405H201.662ZM206.122 -0.000318527L206.733 21.7093L210.786 18.7628L207.747 22.952L215.51 23.4377L207.756 23.9229L210.786 28.0999L206.734 25.1543L206.488 33.8972H208.37V34.1188H208.016C207.691 34.1188 207.414 34.2223 207.185 34.4291C206.957 34.636 206.842 34.902 206.842 35.2271V43.6492C206.842 44.7132 207.038 45.6522 207.429 46.464C207.82 47.2768 208.37 47.9084 209.079 48.3599C209.787 48.8103 210.606 49.0356 211.536 49.0356C212.525 49.0356 213.389 48.8213 214.127 48.3929C214.865 47.9645 215.441 47.3699 215.854 46.6081C216.267 45.8474 216.474 44.9575 216.474 43.9375V35.2271C216.474 34.902 216.36 34.636 216.131 34.4291C215.902 34.2223 215.625 34.1188 215.301 34.1188H214.946V33.8972H219.042V34.1188H218.687C218.363 34.1188 218.087 34.2223 217.858 34.4291C217.629 34.636 217.515 34.902 217.515 35.2271V43.9375C217.515 45.0906 217.268 46.0986 216.773 46.9635C216.278 47.8274 215.581 48.504 214.681 48.9915C213.78 49.479 212.732 49.7222 211.536 49.7222C210.311 49.7222 209.237 49.483 208.315 49.0025C207.392 48.522 206.676 47.8494 206.167 46.9855L206.122 46.9084C205.643 46.0616 205.403 45.0786 205.403 43.9595V35.2271C205.403 34.902 205.288 34.636 205.06 34.4291C204.831 34.2223 204.554 34.1188 204.229 34.1188H203.875V33.8972H205.757L205.511 25.1543L201.459 28.0999L203.905 24.7271L99.7168 23.4313L203.938 22.1807L201.459 18.7628L205.512 21.7093L206.122 -0.000318527ZM224.334 47.7943C224.348 48.1787 224.492 48.507 224.765 48.7803C225.038 49.0536 225.367 49.1907 225.751 49.1907H226.038V49.4119H221.189V49.1907H221.477C221.861 49.1907 222.19 49.0536 222.463 48.7803C222.736 48.507 222.88 48.1787 222.894 47.7943V35.5152C222.894 35.131 222.754 34.8023 222.474 34.5289C222.193 34.2555 221.861 34.1188 221.477 34.1188H221.211L221.189 33.8972H226.969C227.913 33.8972 228.725 34.0671 229.404 34.407C230.083 34.7468 230.607 35.2381 230.976 35.8809C231.345 36.5237 231.53 37.2883 231.53 38.1749C231.53 38.8546 231.397 39.4642 231.131 40.0036C230.866 40.5429 230.511 40.9972 230.069 41.3666C229.626 41.7361 229.124 42.0131 228.563 42.1977C228.002 42.3829 227.422 42.453 226.825 42.4079C226.227 42.3639 225.647 42.1937 225.086 41.8985V41.6769C225.086 41.6769 225.212 41.6954 225.463 41.7324C225.714 41.7693 226.035 41.7766 226.426 41.7545C226.817 41.7324 227.23 41.6511 227.666 41.5107C228.102 41.3703 228.507 41.1228 228.884 40.7682C229.26 40.4136 229.544 39.9186 229.736 39.2831C229.781 39.1207 229.817 38.9175 229.847 38.6736C229.877 38.4298 229.884 38.1897 229.869 37.9533C229.854 36.9337 229.589 36.1137 229.072 35.4931C228.555 34.8724 227.825 34.5621 226.88 34.5621H224.334V47.7943ZM182.493 47.5611H120.543L108.742 35.7485H182.493V47.5611ZM152.437 45.6122V45.511H152.606C152.734 45.511 152.84 45.46 152.923 45.3579C153.005 45.2568 153.047 45.1457 153.047 45.0246V44.9895L152.534 39.3379L150.166 44.6172C150.166 44.6172 150.138 44.6812 150.081 44.8093C150.025 44.9375 149.966 45.0906 149.906 45.2678C149.846 45.445 149.805 45.6121 149.782 45.7713H149.669L146.784 39.5074L146.291 44.9845V45.0246C146.291 45.1457 146.335 45.2568 146.421 45.3579C146.508 45.46 146.611 45.511 146.732 45.511H146.901V45.6122H144.71V45.5H144.89C145.094 45.5 145.275 45.437 145.433 45.3129C145.591 45.1887 145.685 45.0136 145.715 44.7873H145.721L146.562 37.5386H146.675L149.826 44.3609L152.911 37.5386H153.013L153.888 44.8234C153.93 45.0326 154.026 45.1957 154.176 45.3129C154.334 45.437 154.511 45.5 154.706 45.5H154.887V45.6122H152.437ZM141.919 45.6122V45.511H142.089C142.217 45.511 142.322 45.46 142.405 45.3579C142.488 45.2568 142.53 45.1457 142.53 45.0246V44.9895L142.017 39.3379L139.649 44.6172C139.649 44.6172 139.621 44.6812 139.564 44.8093C139.508 44.9375 139.449 45.0906 139.389 45.2678C139.329 45.445 139.287 45.6121 139.265 45.7713H139.152L136.268 39.5074L135.775 44.9845V45.0246C135.775 45.1457 135.818 45.2568 135.905 45.3579C135.991 45.46 136.095 45.511 136.216 45.511H136.385V45.6122H134.193V45.5H134.374C134.578 45.5 134.758 45.437 134.916 45.3129C135.075 45.1887 135.169 45.0136 135.199 44.7873H135.204L136.046 37.5386H136.159L139.309 44.3609L142.394 37.5386H142.496L143.372 44.8234C143.414 45.0326 143.51 45.1957 143.659 45.3129C143.817 45.437 143.994 45.5 144.19 45.5H144.371V45.6122H141.919ZM171.779 38.5224L171.775 38.5225C171.662 38.2661 171.511 38.0833 171.323 37.974C171.135 37.8647 170.954 37.8101 170.781 37.8101H170.69V37.697H173.232V37.8101H173.131C172.987 37.8101 172.861 37.8703 172.752 37.9909C172.643 38.1116 172.63 38.2849 172.712 38.5112H172.706L175.072 44.438L177.562 38.4327C177.614 38.2445 177.591 38.0973 177.491 37.9909C177.378 37.8703 177.25 37.8101 177.107 37.8101H177.005V37.697H179.276V37.8101H179.174C179.009 37.8101 178.832 37.8647 178.643 37.974C178.455 38.0833 178.301 38.2661 178.18 38.5225L178.178 38.5224L175.469 44.6061C175.469 44.6061 175.448 44.6532 175.407 44.7473C175.365 44.8414 175.316 44.9565 175.26 45.0926C175.203 45.2278 175.155 45.3599 175.113 45.488C175.072 45.6162 175.051 45.7102 175.051 45.7713H174.949L171.779 38.5224ZM159.903 45.6122V45.5H160.038C160.197 45.5 160.327 45.424 160.428 45.2738C160.53 45.1227 160.532 44.9645 160.434 44.7983L158.701 42.0606L156.956 44.8143C156.896 44.9144 156.881 45.0166 156.909 45.1207C156.939 45.2298 156.998 45.3209 157.084 45.3919C157.171 45.464 157.263 45.5 157.361 45.5H157.508V45.6122H154.944V45.5H155.102C155.343 45.5 155.565 45.432 155.768 45.2958C155.946 45.1767 156.093 45.0436 156.207 44.8964L158.413 41.6063L156.409 38.4409C156.292 38.2821 156.14 38.1397 155.955 38.0136C155.755 37.8778 155.535 37.8101 155.294 37.8101H155.136V37.697H157.87V37.8101H157.734C157.636 37.8101 157.544 37.8458 157.457 37.9175C157.371 37.989 157.314 38.0795 157.288 38.1888C157.261 38.2982 157.278 38.4056 157.339 38.5112L157.337 38.5111L158.886 40.9465L160.427 38.5109L160.423 38.5112C160.49 38.4056 160.511 38.2982 160.485 38.1888C160.458 38.0795 160.404 37.989 160.321 37.9175C160.238 37.8458 160.144 37.8101 160.038 37.8101H159.903V37.697H162.445V37.8101H162.287C162.053 37.8101 161.837 37.8778 161.637 38.0136C161.446 38.1438 161.287 38.2913 161.161 38.4562L159.169 41.3923L161.392 44.8884C161.509 45.0436 161.66 45.1807 161.846 45.3018C162.049 45.434 162.268 45.5 162.501 45.5H162.58C162.821 45.5 163.043 45.432 163.247 45.2958C163.425 45.1767 163.571 45.0436 163.686 44.8964L165.891 41.6063L163.887 38.4409C163.77 38.2821 163.619 38.1397 163.433 38.0136C163.234 37.8778 163.013 37.8101 162.772 37.8101H162.614V37.697H165.348V37.8101H165.212C165.115 37.8101 165.022 37.8458 164.936 37.9175C164.849 37.989 164.793 38.0795 164.766 38.1888C164.74 38.2982 164.757 38.4056 164.817 38.5112L164.815 38.5111L166.364 40.9465L167.906 38.5109L167.901 38.5112C167.969 38.4056 167.99 38.2982 167.963 38.1888C167.937 38.0795 167.882 37.989 167.799 37.9175C167.717 37.8458 167.622 37.8101 167.517 37.8101H167.381V37.697H169.922V37.8101H169.764C169.531 37.8101 169.314 37.8778 169.115 38.0136C168.924 38.1438 168.765 38.2913 168.64 38.4562L166.648 41.3923L168.871 44.8884C168.988 45.0436 169.139 45.1807 169.325 45.3018C169.527 45.434 169.745 45.5 169.979 45.5H170.137V45.6122H167.381V45.5H167.517C167.675 45.5 167.805 45.424 167.907 45.2738C168.008 45.1227 168.01 44.9645 167.912 44.7983L166.179 42.0606L164.434 44.8143C164.375 44.9144 164.359 45.0166 164.388 45.1207C164.418 45.2298 164.476 45.3209 164.563 45.3919C164.65 45.464 164.742 45.5 164.84 45.5H164.986V45.6122H159.903ZM160.451 24.7166L162.114 24.7372C162.223 25.7012 162.462 26.5734 162.831 27.3538C163.355 28.462 164.086 29.3265 165.023 29.9471C165.961 30.5678 167.049 30.8928 168.289 30.9223C169.336 30.9223 170.307 30.7265 171.2 30.335C172.093 29.9434 172.842 29.3006 173.448 28.4067C174.041 27.53 174.422 26.3586 174.589 24.8924L174.769 24.8947L174.51 28.2848C174.127 28.9201 173.643 29.4854 173.06 29.9804C172.477 30.4754 171.791 30.8669 171.001 31.155C170.211 31.4432 169.308 31.5873 168.289 31.5873C166.754 31.5724 165.389 31.2326 164.193 30.5677C162.997 29.9028 162.064 28.9682 161.392 27.7639C160.893 26.8687 160.579 25.8529 160.451 24.7166ZM98.7938 18.3235H98.5948C98.5948 17.6143 98.3509 17.0565 97.8639 16.6502C97.3769 16.2438 96.787 16.0406 96.093 16.0406C95.2811 16.0406 94.6241 16.2955 94.1221 16.8053C93.6202 17.315 93.3692 17.9098 93.3692 18.5895C93.3692 18.8703 93.4322 19.199 93.5582 19.5759C93.6831 19.9527 93.9151 20.3036 94.2551 20.6286L98.6169 24.6626C99.0598 25.0764 99.3548 25.5196 99.5028 25.9925C99.6498 26.4654 99.7238 26.9234 99.7238 27.3667C99.7238 28.5931 99.3508 29.5905 98.6059 30.3588C97.8609 31.1272 96.853 31.5114 95.584 31.5114C95.2291 31.5114 94.8121 31.4745 94.3331 31.4006C93.8531 31.3267 93.3882 31.1975 92.9382 31.0127C92.4872 30.828 92.1143 30.5879 91.8193 30.2924C91.7753 30.0559 91.7533 29.7604 91.7533 29.4058C91.7533 29.0511 91.7823 28.6781 91.8413 28.2865C91.9013 27.8949 91.9823 27.5366 92.0852 27.2115H92.2842C92.2112 27.9652 92.3062 28.6226 92.5722 29.1842C92.8382 29.7456 93.2252 30.1705 93.7351 30.4586C94.2441 30.7467 94.8231 30.8761 95.473 30.8465C96.285 30.8022 96.982 30.5177 97.5649 29.9932C98.1479 29.4687 98.4399 28.7631 98.4399 27.8765C98.4399 27.4479 98.3659 27.0601 98.2179 26.7128C98.0709 26.3656 97.8569 26.0664 97.5759 25.8151L93.3252 21.8699C92.8822 21.4562 92.5722 21.0018 92.3952 20.5067C92.2182 20.0117 92.1293 19.55 92.1293 19.1214C92.1293 18.5009 92.2772 17.9024 92.5722 17.3261C92.8672 16.7499 93.3072 16.2807 93.8901 15.9187C94.4731 15.5567 95.1851 15.3757 96.026 15.3757C96.263 15.3757 96.517 15.3904 96.79 15.4201C97.0629 15.4496 97.3289 15.4902 97.5869 15.5419C97.6799 15.5604 97.7689 15.5788 97.8559 15.5973H98.7938V18.3235ZM103.621 24.0098L105.06 24.0277V25.4383C105.06 26.5023 105.255 27.4405 105.646 28.2532C106.037 29.066 106.587 29.6977 107.296 30.1483C108.004 30.599 108.824 30.8243 109.754 30.8243C110.743 30.8243 111.606 30.6101 112.344 30.1816C113.082 29.753 113.658 29.1583 114.071 28.3973C114.485 27.6363 114.691 26.746 114.691 25.7265V24.1474L115.732 24.1604V25.7265C115.732 26.8791 115.485 27.8876 114.99 28.7519C114.496 29.6164 113.798 30.2924 112.898 30.78C111.997 31.2676 110.949 31.5114 109.754 31.5114C108.528 31.5114 107.455 31.2714 106.532 30.7911C105.609 30.3109 104.893 29.6385 104.384 28.7742C103.876 27.9097 103.621 26.9012 103.621 25.7486V24.0098ZM217.493 18.124C217.493 17.3705 217.459 16.7203 217.393 16.1736C217.327 15.6269 217.293 15.3535 217.293 15.3535H217.515L229.581 28.244V17.2597C229.567 16.8755 229.43 16.5541 229.172 16.2955C228.913 16.037 228.592 15.9076 228.209 15.9076H227.788V15.686H232.349V15.9076H231.951C231.582 15.9076 231.264 16.037 230.998 16.2955C230.733 16.5541 230.592 16.8755 230.578 17.2597V28.6744C230.578 29.1472 230.592 29.6016 230.622 30.0375C230.652 30.4734 230.685 30.828 230.722 31.1014C230.759 31.3748 230.777 31.5114 230.777 31.5114H230.578L218.491 18.6213L218.508 29.6274H218.51C218.51 29.9969 218.643 30.3146 218.909 30.5806C219.174 30.8465 219.492 30.9795 219.861 30.9795H220.282V31.2011H215.721V30.9795H216.142C216.511 30.9795 216.828 30.8465 217.094 30.5806C217.36 30.3146 217.493 29.9969 217.493 29.6274V18.124ZM201.799 30.4029C200.686 29.7384 199.81 28.8297 199.171 27.677C198.753 26.9242 198.466 26.0944 198.308 25.1874L200.007 25.2085C200.135 25.9752 200.35 26.6798 200.654 27.3223C201.178 28.4305 201.909 29.295 202.845 29.9156C202.9 29.9515 202.955 29.9865 203.01 30.0203L203.137 30.0958L203.211 30.1377L203.336 30.2047L203.401 30.2382C203.528 30.3021 203.657 30.3609 203.789 30.4148L203.798 30.4186C204.297 30.6215 204.831 30.7523 205.401 30.8109L205.42 31.4888C204.489 31.4266 203.627 31.2363 202.836 30.918L202.828 30.9147C202.723 30.8725 202.62 30.828 202.518 30.7813L202.408 30.7296C202.394 30.7231 202.38 30.7164 202.366 30.7097C202.329 30.6916 202.291 30.6731 202.254 30.6542C202.204 30.6286 202.154 30.6025 202.104 30.5758L201.99 30.5138L201.93 30.4792C201.905 30.465 201.88 30.4505 201.855 30.4359L201.799 30.4029ZM214.078 23.76C214.037 25.2395 213.703 26.5452 213.075 27.677C212.404 28.8887 211.47 29.8306 210.274 30.503C209.262 31.0722 208.112 31.4004 206.825 31.4877L206.844 30.8094C207.797 30.7103 208.649 30.4123 209.399 29.9156C210.337 29.295 211.068 28.4305 211.592 27.3223C212.065 26.3212 212.325 25.1693 212.37 23.8668L214.078 23.76ZM182.022 24.9849L183.462 25.0028V29.6053C183.476 29.9895 183.62 30.3182 183.893 30.5916C184.167 30.8649 184.495 31.0017 184.879 31.0017H185.167V31.2233H180.318V31.0017H180.605C180.989 31.0017 181.318 30.8649 181.591 30.5916C181.864 30.3182 182.008 29.9895 182.022 29.6053V24.9849ZM64.6969 31.2011V30.9795H64.9849C65.3679 30.9795 65.6969 30.8428 65.9699 30.5695C66.2428 30.2961 66.3868 29.9673 66.4018 29.5832V17.304C66.3868 16.9198 66.2428 16.591 65.9699 16.3176C65.6969 16.0443 65.3679 15.9076 64.9849 15.9076H64.6969V15.686H70.6746C71.3395 15.686 71.9405 15.782 72.4795 15.9741C73.0184 16.1662 73.4724 16.4433 73.8414 16.8053C74.2104 17.1673 74.4943 17.6032 74.6933 18.113C74.8923 18.6227 74.9923 19.2027 74.9923 19.8529C74.9923 20.5622 74.8263 21.2419 74.4943 21.892C74.1624 22.5423 73.7124 23.0705 73.1434 23.4768C72.5755 23.8832 71.9365 24.0863 71.2285 24.0863C71.4795 24.1898 71.7525 24.4003 72.0475 24.718C72.3425 25.0357 72.6014 25.3423 72.8224 25.6378C72.8224 25.6378 72.9224 25.7819 73.1214 26.0701C73.3204 26.3582 73.5714 26.7091 73.8744 27.1228C74.1774 27.5366 74.4833 27.9429 74.7933 28.3419C75.1033 28.7408 75.3683 29.0585 75.5903 29.295C75.8852 29.6201 76.1802 29.9082 76.4762 30.1594C76.7712 30.4106 77.0922 30.6101 77.4392 30.7578C77.7861 30.9056 78.1731 30.9795 78.6011 30.9795V31.2011H77.3842C76.7042 31.2011 76.1182 31.0977 75.6233 30.8909C75.1293 30.684 74.7123 30.4291 74.3723 30.1261C74.0334 29.8232 73.7454 29.5314 73.5094 29.2506C73.4644 29.1916 73.3424 29.0216 73.1434 28.7408C72.9444 28.4601 72.7084 28.1239 72.4355 27.7324C72.1625 27.3408 71.8925 26.9529 71.6265 26.5688C71.3615 26.1846 71.1325 25.8558 70.9406 25.5825C70.7486 25.3091 70.6376 25.1503 70.6086 25.1059C70.3276 24.7364 70.0176 24.3966 69.6786 24.0863C69.3387 23.776 68.9697 23.6208 68.5717 23.6208V23.3992C68.5717 23.3992 68.6857 23.4029 68.9147 23.4103C69.1437 23.4177 69.4207 23.414 69.7446 23.3992C70.1286 23.3845 70.5496 23.3253 71.0076 23.2219C71.4645 23.1185 71.8925 22.9042 72.2915 22.5792C72.6894 22.2541 72.9924 21.7591 73.1994 21.0941C73.2434 20.9315 73.2804 20.7284 73.3094 20.4846C73.3394 20.2408 73.3464 20.0007 73.3314 19.7643C73.3174 18.7595 73.0624 17.9579 72.5675 17.3594C72.0735 16.761 71.4125 16.4396 70.5866 16.3952C70.1726 16.3657 69.7486 16.3546 69.3137 16.362C68.8777 16.3694 68.5127 16.3731 68.2167 16.3731H67.8407V29.5832C67.8407 29.9673 67.9807 30.2961 68.2617 30.5695C68.5417 30.8428 68.8737 30.9795 69.2577 30.9795H69.5236V31.2011H64.6969ZM149.763 24.5837L151.202 24.6015V30.514H154.368C155.15 30.514 155.788 30.3922 156.283 30.1483C156.777 29.9045 157.18 29.5609 157.49 29.1177C157.8 28.6744 158.073 28.172 158.309 27.6105H158.53L157.246 31.2011H148.058V30.9795H148.346C148.73 30.9795 149.058 30.8428 149.331 30.5695C149.604 30.2961 149.748 29.9673 149.763 29.5832V24.5837ZM124.583 24.2705L126.292 24.2918C126.441 24.4015 126.596 24.5436 126.758 24.718C127.053 25.0357 127.312 25.3423 127.533 25.6378C127.533 25.6378 127.633 25.7819 127.832 26.0701C128.031 26.3582 128.282 26.7091 128.585 27.1228C128.887 27.5366 129.194 27.9429 129.504 28.3419C129.814 28.7408 130.079 29.0585 130.301 29.295C130.596 29.6201 130.891 29.9082 131.186 30.1594C131.482 30.4106 131.803 30.6101 132.15 30.7578C132.497 30.9056 132.884 30.9795 133.312 30.9795V31.2011H132.094C131.415 31.2011 130.829 31.0977 130.334 30.8909C129.839 30.684 129.423 30.4291 129.083 30.1261C128.743 29.8232 128.456 29.5314 128.219 29.2506C128.175 29.1916 128.053 29.0216 127.854 28.7408C127.655 28.4601 127.419 28.1239 127.146 27.7324C126.872 27.3408 126.603 26.9529 126.337 26.5688C126.072 26.1846 125.843 25.8558 125.651 25.5825C125.459 25.3091 125.348 25.1503 125.319 25.1059C125.093 24.8082 124.848 24.5297 124.583 24.2705ZM139.086 24.4509L140.836 24.4727C140.917 24.5457 140.999 24.6275 141.083 24.718C141.378 25.0357 141.637 25.3423 141.858 25.6378C141.858 25.6378 141.958 25.7819 142.157 26.0701C142.356 26.3582 142.607 26.7091 142.91 27.1228C143.212 27.5366 143.519 27.9429 143.829 28.3419C144.139 28.7408 144.405 29.0585 144.626 29.295C144.921 29.6201 145.216 29.9082 145.512 30.1594C145.807 30.4106 146.128 30.6101 146.475 30.7578C146.822 30.9056 147.209 30.9795 147.637 30.9795V31.2011H146.42C145.74 31.2011 145.154 31.0977 144.659 30.8909C144.165 30.684 143.748 30.4291 143.408 30.1261C143.069 29.8232 142.781 29.5314 142.545 29.2506C142.5 29.1916 142.379 29.0216 142.179 28.7408C141.98 28.4601 141.744 28.1239 141.471 27.7324C141.198 27.3408 140.928 26.9529 140.662 26.5688C140.397 26.1846 140.168 25.8558 139.976 25.5825C139.784 25.3091 139.673 25.1503 139.644 25.1059C139.469 24.8761 139.284 24.6578 139.086 24.4509ZM121.112 24.2273L122.551 24.2452V29.5832C122.551 29.9673 122.691 30.2961 122.972 30.5695C123.252 30.8428 123.584 30.9795 123.968 30.9795H124.234V31.2011H119.408V30.9795H119.696C120.079 30.9795 120.408 30.8428 120.681 30.5695C120.953 30.2961 121.097 29.9673 121.112 29.5832V24.2273ZM135.438 24.4055L136.877 24.4234V29.5832C136.877 29.9673 137.016 30.2961 137.297 30.5695C137.577 30.8428 137.909 30.9795 138.293 30.9795H138.559V31.2011H133.733V30.9795H134.021C134.405 30.9795 134.733 30.8428 135.006 30.5695C135.279 30.2961 135.423 29.9673 135.438 29.5832V24.4055ZM192.606 25.1165L194.045 25.1344V29.5832C194.059 29.9673 194.204 30.2961 194.477 30.5695C194.75 30.8428 195.078 30.9795 195.462 30.9795H195.75V31.2011H190.901V30.9795H191.188C191.572 30.9795 191.901 30.8428 192.174 30.5695C192.447 30.2961 192.591 29.9673 192.606 29.5832V25.1165ZM88.1445 18.0797H87.9225V17.6808C87.9225 17.3262 87.7975 17.0195 87.5465 16.761C87.3435 16.5523 87.1026 16.4229 86.8236 16.3731H82.1659V23.2219H85.9076C86.2036 23.2071 86.4546 23.0926 86.6606 22.8784C86.8676 22.6641 86.9706 22.4092 86.9706 22.1137V21.8034H87.1926V25.3054H86.9706V24.9729C86.9706 24.6774 86.8676 24.4225 86.6606 24.2082C86.4546 23.994 86.2036 23.8869 85.9076 23.8869H82.1659V30.514H85.3327C86.1146 30.514 86.7526 30.3922 87.2475 30.1483C87.7415 29.9045 88.1445 29.5609 88.4545 29.1177C88.7645 28.6744 89.0374 28.172 89.2734 27.6105H89.4944L88.2105 31.2011H79.0221V30.9795H79.31C79.694 30.9795 80.022 30.8428 80.295 30.5695C80.568 30.2961 80.712 29.9673 80.727 29.5832V17.304C80.727 16.9198 80.587 16.591 80.306 16.3176C80.026 16.0443 79.694 15.9076 79.31 15.9076H79.0441L79.0221 15.686H85.4427C85.7676 15.686 86.1106 15.6638 86.4726 15.6194C86.8346 15.5752 87.1696 15.5235 87.4795 15.4643C87.7895 15.4052 88.0115 15.3462 88.1445 15.287V18.0797ZM155.963 24.6608L156.228 24.6641V25.3054H156.006V24.9729C156.006 24.8633 155.992 24.7593 155.963 24.6608ZM206.843 16.0777L206.824 15.3994C207.719 15.4601 208.548 15.6372 209.31 15.9309L209.365 15.9521C209.386 15.9606 209.408 15.9692 209.429 15.9779C209.445 15.9842 209.46 15.9906 209.476 15.997L209.552 16.0289L209.651 16.0718C209.665 16.0782 209.68 16.0847 209.694 16.0912C209.892 16.1805 210.086 16.2782 210.274 16.3842L210.351 16.4279L210.447 16.4844C210.456 16.4895 210.464 16.4946 210.473 16.4997C210.719 16.6483 210.954 16.809 211.178 16.9818L211.184 16.9866C211.954 17.584 212.585 18.3251 213.075 19.2101C213.699 20.3355 214.033 21.6327 214.078 23.1021L212.369 22.9952C212.321 21.7028 212.062 20.5594 211.592 19.5648C211.068 18.4566 210.337 17.5921 209.399 16.9715C209.304 16.9083 209.207 16.8485 209.108 16.7917L209.097 16.7853C209.049 16.7577 209 16.7308 208.951 16.7045L208.916 16.6863C208.877 16.666 208.838 16.6463 208.799 16.627L208.773 16.6144L208.685 16.5728L208.599 16.534C208.058 16.2952 207.473 16.1431 206.843 16.0777ZM103.621 22.8549V17.0158C103.621 16.6908 103.507 16.4248 103.278 16.2179C103.049 16.011 102.772 15.9076 102.448 15.9076H102.093V15.686H106.587V15.9076H106.233C105.908 15.9076 105.632 16.011 105.403 16.2179C105.174 16.4248 105.06 16.6908 105.06 17.0158V22.8375L103.621 22.8549ZM114.691 22.722V17.0158C114.691 16.6908 114.577 16.4248 114.348 16.2179C114.119 16.011 113.843 15.9076 113.518 15.9076H113.164V15.686H117.26V15.9076H116.906C116.581 15.9076 116.304 16.011 116.075 16.2179C115.847 16.4248 115.732 16.6908 115.732 17.0158V22.7095L114.691 22.722ZM121.112 22.645V17.304C121.097 16.9198 120.953 16.591 120.681 16.3176C120.408 16.0443 120.079 15.9076 119.696 15.9076H119.408V15.686H125.385C126.05 15.686 126.651 15.782 127.19 15.9741C127.729 16.1662 128.183 16.4433 128.552 16.8053C128.921 17.1673 129.205 17.6032 129.404 18.113C129.603 18.6227 129.703 19.2027 129.703 19.8529C129.703 20.5622 129.537 21.2419 129.205 21.892C129.084 22.1283 128.948 22.3486 128.796 22.5528L127.008 22.5742C127.403 22.2492 127.704 21.7558 127.909 21.0941C127.954 20.9315 127.991 20.7284 128.02 20.4846C128.05 20.2408 128.057 20.0007 128.042 19.7643C128.028 18.7595 127.773 17.9579 127.278 17.3594C126.784 16.761 126.123 16.4396 125.297 16.3952C124.883 16.3657 124.459 16.3546 124.023 16.362C123.588 16.3694 123.223 16.3731 122.927 16.3731H122.551V22.6277L121.112 22.645ZM135.438 22.4731V17.304C135.423 16.9198 135.279 16.591 135.006 16.3176C134.733 16.0443 134.405 15.9076 134.021 15.9076H133.733V15.686H139.71C140.375 15.686 140.976 15.782 141.515 15.9741C142.054 16.1662 142.508 16.4433 142.877 16.8053C143.246 17.1673 143.53 17.6032 143.729 18.113C143.929 18.6227 144.028 19.2027 144.028 19.8529C144.028 20.5622 143.862 21.2419 143.53 21.892C143.443 22.0629 143.347 22.2253 143.243 22.3794L141.52 22.4001C141.825 22.0822 142.063 21.6469 142.235 21.0941C142.279 20.9315 142.316 20.7284 142.345 20.4846C142.375 20.2408 142.382 20.0007 142.367 19.7643C142.353 18.7595 142.098 17.9579 141.604 17.3594C141.109 16.761 140.448 16.4396 139.622 16.3952C139.208 16.3657 138.784 16.3546 138.349 16.362C137.913 16.3694 137.548 16.3731 137.253 16.3731H136.877V22.4558L135.438 22.4731ZM149.763 22.3012V17.304C149.763 16.9198 149.623 16.591 149.342 16.3176C149.062 16.0443 148.73 15.9076 148.346 15.9076H148.08L148.058 15.686H154.478C154.803 15.686 155.146 15.6638 155.508 15.6194C155.87 15.5752 156.205 15.5235 156.515 15.4643C156.825 15.4052 157.047 15.3462 157.18 15.287V18.0797H156.958V17.6808C156.958 17.3262 156.833 17.0195 156.582 16.761C156.379 16.5523 156.138 16.4229 155.859 16.3731H151.202V22.2839L149.763 22.3012ZM156.228 22.2235L156.001 22.2263C156.004 22.1894 156.006 22.1519 156.006 22.1137V21.8034H156.228V22.2235ZM160.465 22.1728C160.6 21.1027 160.906 20.1368 161.381 19.2749C162.045 18.0706 162.979 17.1324 164.182 16.46C165.385 15.7877 166.798 15.4515 168.422 15.4515C169.514 15.4515 170.499 15.5956 171.377 15.8837C172.256 16.1719 173.02 16.5302 173.669 16.9587L174.112 20.0839H173.912C173.588 18.7836 172.924 17.7972 171.92 17.1249C170.916 16.4526 169.75 16.1164 168.422 16.1164C167.123 16.1164 165.998 16.423 165.046 17.0363C164.093 17.6495 163.355 18.5065 162.831 19.6073C162.47 20.3663 162.233 21.2147 162.121 22.1529L160.465 22.1728ZM182.022 21.914V16.3509H177.86C177.491 16.3657 177.181 16.4987 176.93 16.7499C176.679 17.0011 176.553 17.3113 176.553 17.6808V18.0576L176.332 18.0797V15.287C176.48 15.3462 176.705 15.4052 177.007 15.4643C177.31 15.5235 177.646 15.5752 178.015 15.6194C178.384 15.6638 178.723 15.686 179.033 15.686H186.45C186.775 15.686 187.118 15.6638 187.48 15.6194C187.841 15.5752 188.177 15.5235 188.487 15.4643C188.797 15.4052 189.018 15.3462 189.151 15.287V18.0797L188.93 18.0576V17.6808C188.93 17.3113 188.801 17.0011 188.542 16.7499C188.284 16.4987 187.978 16.3657 187.623 16.3509H183.462V21.8968L182.022 21.914ZM192.606 21.7871V17.304C192.591 16.9198 192.447 16.591 192.174 16.3176C191.901 16.0443 191.572 15.9076 191.188 15.9076H190.901V15.686H195.75V15.9076H195.462C195.078 15.9076 194.75 16.0443 194.477 16.3176C194.204 16.591 194.059 16.9198 194.045 17.304V21.7698L192.606 21.7871ZM205.421 15.3983L205.402 16.0762C204.452 16.1738 203.599 16.4722 202.845 16.9715C201.909 17.5921 201.178 18.4566 200.654 19.5648C200.348 20.2127 200.131 20.9238 200.004 21.6983L198.304 21.7186C198.462 20.8045 198.75 19.9683 199.171 19.2101C199.842 17.9985 200.776 17.0565 201.971 16.3842C202.987 15.8125 204.137 15.4839 205.421 15.3983Z" fill="white"/>
<path d="M40.7187 89.7974C39.4348 90.1338 38.296 90.3019 37.3025 90.3019C36.309 90.3019 35.4301 90.2409 34.6658 90.1188C33.9017 89.9956 33.0839 89.7584 32.2127 89.407C31.3414 89.0547 30.5237 88.6493 29.7594 88.1908C28.9952 87.7314 28.2309 87.1648 27.4667 86.4921C26.0605 85.36 24.7842 84.1358 23.6378 82.8195C22.4915 81.5042 20.2828 79.0327 17.0118 75.4061C13.7409 71.7805 11.5704 69.37 10.5005 68.1768C9.43055 66.9827 8.6051 66.356 8.02433 66.295V65.8355C9.79733 65.8355 10.982 65.7975 11.578 65.7204C12.1742 65.6443 12.8084 65.5062 13.481 65.308C14.1536 65.1088 14.7191 64.8405 15.1776 64.5042C16.9813 63.341 17.883 61.4131 17.883 58.7204C17.883 56.4862 17.3863 54.6964 16.3927 53.35C15.3993 52.0037 14.0007 51.315 12.1971 51.284H6.51113V78.6423C6.51113 79.4081 6.79391 80.0807 7.35938 80.6623C7.92494 81.2439 8.6204 81.5342 9.44575 81.5342H9.99602L10.0419 81.9936H-0.000282288V81.5342H0.595883C1.36004 81.5342 2.0326 81.2589 2.61346 80.7084C3.19423 80.1578 3.50001 79.4841 3.53051 78.6883V53.2119C3.50001 52.4161 3.20193 51.7354 2.63636 51.1689C2.07079 50.6033 1.39064 50.32 0.595883 50.32H-0.000282288V49.8616H12.3805C15.0706 49.8616 17.2335 50.6183 18.869 52.1338C20.5044 53.6483 21.3221 55.6524 21.3221 58.1468C21.3221 60.6403 20.5732 62.7825 19.0753 64.5732C17.5774 66.363 15.7432 67.2579 13.5727 67.2579H13.5269C14.5662 68.36 15.7432 69.6453 17.0577 71.1148C22.3463 76.9596 25.7395 80.6313 27.2374 82.1308C28.7353 83.6303 30.0575 84.8625 31.2038 85.8265C32.3502 86.7904 33.3666 87.5021 34.2532 87.9606C36.0569 88.9406 37.8451 89.4301 39.6181 89.4301C39.985 89.4301 40.3519 89.399 40.7187 89.338V89.7974ZM253.827 48.252C254.536 48.9497 255.385 49.8536 256.374 50.9627L279.484 76.6683V53.1198C279.453 52.325 279.163 51.6594 278.613 51.1238C278.062 50.5883 277.405 50.32 276.641 50.32H275.769V49.8616H285.216V50.32H284.391C283.626 50.32 282.969 50.5883 282.419 51.1238C281.868 51.6594 281.578 52.309 281.548 53.0748V79.0097C281.853 79.346 282.289 79.8515 282.854 80.5242C283.42 81.1978 283.817 81.6723 284.047 81.9476C284.276 82.2229 284.62 82.6203 285.079 83.1408C285.537 83.6613 285.927 84.0667 286.248 84.357C286.569 84.6483 286.966 85.0157 287.44 85.4591C287.914 85.9025 288.357 86.2549 288.77 86.5152C289.183 86.7754 289.649 87.0737 290.169 87.41C290.902 87.8385 291.735 88.1598 292.668 88.374C293.599 88.5882 294.364 88.6953 294.96 88.6953C295.556 88.6953 296.19 88.6343 296.863 88.5121L297.046 88.9706C294.601 89.7354 292.399 89.8735 290.444 89.384C288.396 88.8325 286.622 87.9756 285.124 86.8135C283.687 85.6503 282.22 84.2579 280.722 82.6363L256.557 55.8285V78.7804C256.588 79.8515 257.062 80.6473 257.979 81.1668C258.407 81.4121 258.864 81.5342 259.354 81.5342H260.225V81.9936H250.779V81.5342H251.65C252.415 81.5342 253.072 81.2669 253.622 80.7314C254.173 80.1958 254.448 79.5302 254.448 78.7344V53.5332C254.295 53.319 253.989 52.9136 253.531 52.317C253.072 51.7204 252.69 51.2379 252.384 50.8706C252.246 50.7054 252.087 50.5162 251.905 50.304L253.827 48.252ZM170.35 54.4511V54.9106H169.662C169.081 54.9106 168.577 55.1018 168.149 55.4842C167.721 55.8666 167.492 56.334 167.461 56.8846V72.308C167.461 75.4902 166.445 78.0077 164.412 79.8585C162.379 81.7104 159.589 82.6363 156.044 82.6363C152.528 82.6363 149.738 81.7184 147.675 79.8815C145.611 78.0457 144.579 75.5362 144.579 72.354V56.8846C144.549 56.334 144.327 55.8666 143.914 55.4842C143.502 55.1018 142.989 54.9106 142.379 54.9106H141.691V54.4511H150.403V54.9106H149.715C149.134 54.9106 148.622 55.1018 148.179 55.4842C147.736 55.8666 147.514 56.334 147.514 56.8846V71.8025C147.514 74.7714 148.271 77.1128 149.784 78.8265C151.297 80.5402 153.369 81.397 155.998 81.397C158.901 81.397 161.186 80.5862 162.852 78.9636C164.519 77.342 165.352 75.1228 165.352 72.308V56.8846C165.352 56.334 165.138 55.8666 164.71 55.4842C164.282 55.1018 163.762 54.9106 163.15 54.9106H162.463V54.4511H170.35ZM99.4131 53.8085C101.553 53.8085 103.563 54.1529 105.443 54.8415C107.323 55.5302 108.973 56.5172 110.394 57.8025C111.816 59.0878 112.924 60.6103 113.719 62.3701C114.514 64.1298 114.912 66.0798 114.912 68.2229C114.912 70.365 114.514 72.315 113.719 74.0747C112.924 75.8345 111.816 77.357 110.394 78.6423C108.973 79.9276 107.323 80.9146 105.443 81.6032C103.563 82.2919 101.553 82.6363 99.4131 82.6363C97.2732 82.6363 95.2703 82.2919 93.4054 81.6032C91.5405 80.9146 89.8976 79.9276 88.4767 78.6423C87.0548 77.357 85.9469 75.8345 85.1519 74.0747C84.357 72.315 83.96 70.365 83.96 68.2229C83.96 66.0798 84.357 64.1298 85.1519 62.3701C85.9469 60.6103 87.0548 59.0878 88.4767 57.8025C89.8976 56.5172 91.5405 55.5302 93.4054 54.8415C95.2703 54.1529 97.2732 53.8085 99.4131 53.8085ZM61.7023 70.5192L64.7001 70.6073L67.605 77.6934L70.5228 70.7804L72.6697 70.8435L69.3779 77.9086C69.3779 77.9086 69.2939 78.0918 69.1259 78.4591C68.9579 78.8265 68.7589 79.2779 68.5299 79.8135C68.2999 80.349 68.0939 80.8765 67.9109 81.397C67.727 81.9166 67.62 82.33 67.59 82.6363H67.177L61.7023 70.5192ZM230.924 53.8085C233.064 53.8085 235.074 54.1529 236.954 54.8415C238.834 55.5302 240.485 56.5172 241.907 57.8025C243.327 59.0878 244.435 60.6103 245.23 62.3701C246.025 64.1298 246.423 66.0798 246.423 68.2229C246.423 70.365 246.025 72.315 245.23 74.0747C244.435 75.8345 243.327 77.357 241.907 78.6423C240.485 79.9276 238.834 80.9146 236.954 81.6032C235.074 82.2919 233.064 82.6363 230.924 82.6363C228.784 82.6363 226.781 82.2919 224.918 81.6032C223.053 80.9146 221.409 79.9276 219.988 78.6423C218.566 77.357 217.458 75.8345 216.663 74.0747C215.868 72.315 215.471 70.365 215.471 68.2229C215.471 66.0798 215.868 64.1298 216.663 62.3701C217.458 60.6103 218.566 59.0878 219.988 57.8025C221.409 56.5172 223.053 55.5302 224.918 54.8415C226.781 54.1529 228.784 53.8085 230.924 53.8085ZM200.981 81.9936V81.5342H201.623C202.479 81.5342 203.205 81.2899 203.801 80.7994C204.397 80.31 204.711 79.7294 204.741 79.0557V57.3891C204.711 56.6854 204.397 56.0958 203.801 55.6223C203.205 55.1479 202.479 54.9106 201.623 54.9106H200.981V54.4511H211.39L211.344 54.9106H210.748C209.892 54.9106 209.166 55.1479 208.57 55.6223C207.974 56.0958 207.661 56.6854 207.63 57.3891V79.0557C207.661 79.7294 207.974 80.31 208.57 80.7994C209.166 81.2899 209.892 81.5342 210.748 81.5342H211.344L211.39 81.9936H200.981ZM118.993 81.9936V81.5342H119.635C120.399 81.5342 121.026 81.2899 121.515 80.7994C122.004 80.31 122.264 79.7294 122.294 79.0557V57.3891C122.264 56.6854 121.989 56.0958 121.469 55.6223C120.949 55.1479 120.307 54.9106 119.543 54.9106H118.993V54.4511H128.484V54.9106H127.934C127.2 54.9106 126.566 55.1479 126.031 55.6223C125.496 56.0958 125.229 56.6854 125.229 57.3891V80.5702H132.199C133.727 80.5702 134.958 80.349 135.89 79.9046C136.823 79.4611 137.579 78.8485 138.16 78.0687C138.741 77.2879 139.246 76.4091 139.674 75.4291H140.132L137.61 81.9936H118.993ZM48.193 58.9036H47.6887V58.2159C47.6887 57.5733 47.4823 57.0217 47.0696 56.5633C46.6569 56.1038 46.099 55.8746 45.3959 55.8746H35.904V67.5342H43.6993C44.3413 67.5342 44.815 67.343 45.1207 66.9596C45.4265 66.5773 45.5793 66.1258 45.5793 65.6063V65.0087H46.0837V71.4361H45.5793V70.8385C45.5793 70.319 45.4265 69.8675 45.1207 69.4852C44.815 69.1028 44.3413 68.9106 43.6993 68.9106H35.904V80.5702H42.8738C44.4024 80.5702 45.6328 80.349 46.5652 79.9046C47.4976 79.4611 48.2541 78.8485 48.835 78.0687C49.4159 77.2879 49.9202 76.4091 50.3482 75.4291H50.8068L48.2847 81.9936H29.6677V81.5342H30.3097C31.074 81.5342 31.7006 81.2899 32.1897 80.7994C32.6789 80.31 32.9386 79.7294 32.9692 79.0557V57.343C32.9386 56.6393 32.6789 56.0577 32.1897 55.5993C31.7006 55.1398 31.074 54.9106 30.3097 54.9106H29.6677V54.4511H42.9655C43.9133 54.4511 44.922 54.3671 45.992 54.1989C47.0619 54.0307 47.7957 53.8696 48.193 53.7174V58.9036ZM197.817 58.8585H197.312V58.1238C197.312 57.4812 197.106 56.9376 196.693 56.4942C196.281 56.0507 195.723 55.8135 195.019 55.7825H186.72V79.0557C186.751 79.7294 187.026 80.31 187.546 80.7994C188.065 81.2899 188.692 81.5342 189.426 81.5342H189.93V81.9936H180.484V81.5342H181.034C181.768 81.5342 182.394 81.2899 182.914 80.7994C183.434 80.31 183.709 79.7294 183.739 79.0557V55.7825H175.44C174.737 55.8135 174.179 56.0507 173.767 56.4942C173.354 56.9376 173.148 57.4812 173.148 58.1238V58.8585H172.643V53.6714C172.918 53.7625 173.338 53.8696 173.904 53.9927C174.47 54.1148 175.104 54.2139 175.806 54.291C176.509 54.3671 177.167 54.4061 177.778 54.4061H192.681C193.292 54.4061 193.942 54.3671 194.63 54.291C195.317 54.2139 195.952 54.1148 196.533 53.9927C197.114 53.8696 197.542 53.7625 197.817 53.6714V58.8585ZM230.924 81.2589C233.186 81.2589 235.234 80.7084 237.069 79.6063C238.903 78.5052 240.355 76.9746 241.425 75.0157C242.494 73.0577 243.029 70.7935 243.029 68.2229C243.029 65.6213 242.494 63.349 241.425 61.4061C240.355 59.4621 238.903 57.9406 237.069 56.8385C235.234 55.7364 233.186 55.1859 230.924 55.1859C228.692 55.1859 226.659 55.7364 224.826 56.8385C222.991 57.9406 221.539 59.4621 220.469 61.4061C219.399 63.349 218.864 65.6213 218.864 68.2229C218.864 70.7935 219.399 73.0577 220.469 75.0157C221.539 76.9746 222.991 78.5052 224.826 79.6063C226.659 80.7084 228.692 81.2589 230.924 81.2589ZM99.4131 81.2589C101.675 81.2589 103.723 80.7084 105.558 79.6063C107.392 78.5052 108.843 76.9746 109.913 75.0157C110.983 73.0577 111.518 70.7935 111.518 68.2229C111.518 65.6213 110.983 63.349 109.913 61.4061C108.843 59.4621 107.392 57.9406 105.558 56.8385C103.723 55.7364 101.675 55.1859 99.4131 55.1859C97.1812 55.1859 95.1483 55.7364 93.3144 56.8385C91.4795 57.9406 90.0276 59.4621 88.9577 61.4061C87.8878 63.349 87.3528 65.6213 87.3528 68.2229C87.3528 70.7935 87.8878 73.0577 88.9577 75.0157C90.0276 76.9746 91.4795 78.5052 93.3144 79.6063C95.1483 80.7084 97.1812 81.2589 99.4131 81.2589ZM59.6544 65.9867L55.9565 57.8025H55.9425C55.4839 56.7625 54.9184 56.0197 54.2459 55.5763C53.5733 55.1328 52.9313 54.9106 52.32 54.9106H51.9531V54.4511H61.3533V54.9106H60.9864C60.4664 54.9106 60.0004 55.1629 59.5884 55.6674C59.2085 56.1318 59.1325 56.7695 59.3595 57.5823L62.7683 65.8946L59.6544 65.9867ZM72.7097 65.6003L76.1215 57.5162C76.3494 56.7354 76.2714 56.1188 75.8895 55.6674C75.4615 55.1629 74.9725 54.9106 74.4216 54.9106H74.1006V54.4511H82.8131V54.9106H82.4461C81.8041 54.9106 81.1472 55.1328 80.4752 55.5763C79.8972 55.9566 79.3883 56.5572 78.9453 57.3781L75.1475 65.5282L72.7097 65.6003ZM248.841 47.262C248.627 47.0828 248.402 46.8936 248.165 46.6934C247.248 45.9897 246.27 45.4852 245.23 45.1789C244.191 44.8726 243.312 44.7204 242.594 44.7204C241.876 44.7204 241.104 44.8426 240.279 45.0868L240.095 44.6283C241.563 44.0157 242.976 43.7104 244.336 43.7104C245.697 43.7104 246.866 43.8706 247.844 44.1919C248.701 44.4732 249.617 44.9487 250.591 45.6173L248.841 47.262ZM28.7124 44.4171C28.315 44.4171 27.9456 44.3471 27.6043 44.2059C27.2629 44.0658 26.9623 43.8696 26.7024 43.6173C26.4426 43.3651 26.24 43.0718 26.0949 42.7375C25.9497 42.4031 25.8771 42.0428 25.8771 41.655C25.8771 41.2673 25.9497 40.9064 26.0949 40.5724C26.24 40.2384 26.44 39.9451 26.6948 39.6926C26.9496 39.4401 27.2489 39.2438 27.5928 39.1035C27.9367 38.9632 28.3048 38.8931 28.6971 38.8931C29.1404 38.8931 29.5581 38.9811 29.9505 39.1571C30.3428 39.333 30.6664 39.5791 30.9211 39.8953L30.1492 40.6068C29.9658 40.3773 29.7492 40.2039 29.4995 40.0866C29.25 39.9693 28.9825 39.9106 28.6971 39.9106C28.4577 39.9106 28.236 39.9553 28.0322 40.0445C27.8284 40.1338 27.6502 40.2562 27.4973 40.4117C27.3444 40.5673 27.226 40.7509 27.1419 40.9626C27.0578 41.1742 27.0158 41.405 27.0158 41.655C27.0158 41.9048 27.0591 42.1369 27.1457 42.3511C27.2323 42.5653 27.3534 42.7505 27.5088 42.9056C27.6642 43.0618 27.845 43.1839 28.0513 43.273C28.2577 43.3621 28.4831 43.4071 28.7277 43.4071C28.9825 43.4071 29.2118 43.3601 29.4156 43.265C29.6193 43.1709 29.7912 43.0388 29.9314 42.8676C30.0715 42.6964 30.1645 42.5042 30.2103 42.29H28.6283V41.3259H31.3949V41.6626C31.3949 42.0608 31.3274 42.4261 31.1924 42.7605C31.0574 43.0948 30.8702 43.3851 30.6307 43.6324C30.3912 43.8796 30.1084 44.0728 29.7823 44.2099C29.4563 44.3481 29.0997 44.4171 28.7124 44.4171ZM82.2021 44.4091C81.7691 44.4091 81.3462 44.329 80.9332 44.1679C80.5202 44.0077 80.1542 43.7795 79.8332 43.4832L80.4672 42.6874C80.7782 42.9637 81.0772 43.1619 81.3651 43.285C81.6531 43.4071 81.9571 43.4682 82.2781 43.4682C82.5031 43.4682 82.6961 43.4412 82.859 43.3881C83.022 43.3341 83.148 43.256 83.238 43.1549C83.327 43.0528 83.371 42.9327 83.371 42.7945C83.371 42.6113 83.305 42.4692 83.172 42.3701C83.04 42.271 82.8131 42.1929 82.4921 42.1369L81.4301 41.9533C80.9762 41.8768 80.6312 41.7161 80.3942 41.4713C80.1572 41.2266 80.0392 40.9103 80.0392 40.5226C80.0392 40.1911 80.1242 39.9029 80.2952 39.6582C80.4662 39.4133 80.7082 39.2259 81.0212 39.0958C81.3341 38.9658 81.7081 38.9007 82.1411 38.9007C82.5331 38.9007 82.924 38.9671 83.314 39.0996C83.704 39.2323 84.049 39.4158 84.35 39.6505L83.753 40.4768C83.193 40.0484 82.6301 39.8342 82.0641 39.8342C81.8651 39.8342 81.6921 39.8596 81.5441 39.9106C81.3971 39.9616 81.2831 40.0318 81.2042 40.121C81.1262 40.2102 81.0862 40.3161 81.0862 40.4385C81.0862 40.6017 81.1452 40.728 81.2621 40.8172C81.3791 40.9064 81.5751 40.974 81.8501 41.0199L82.859 41.1882C83.394 41.275 83.794 41.4446 84.059 41.697C84.324 41.9495 84.457 42.282 84.457 42.6954C84.457 43.0428 84.365 43.3441 84.181 43.6023C83.998 43.8596 83.737 44.0588 83.398 44.1989C83.059 44.3391 82.6601 44.4091 82.2021 44.4091ZM42.5759 44.4091C42.0918 44.4091 41.6727 44.312 41.3186 44.1188C40.9646 43.9246 40.6907 43.6484 40.4971 43.288C40.3035 42.9287 40.2067 42.5062 40.2067 42.0221V38.9772H41.3148V42.0221C41.3148 42.298 41.367 42.5383 41.4715 42.7455C41.5759 42.9517 41.7237 43.1098 41.9147 43.2189C42.1058 43.3291 42.3287 43.3841 42.5835 43.3841C42.8382 43.3841 43.0598 43.3291 43.2483 43.2189C43.4369 43.1098 43.5833 42.9517 43.6878 42.7455C43.7923 42.5383 43.8445 42.298 43.8445 42.0221V38.9772H44.945V42.0221C44.945 42.5012 44.8481 42.9206 44.6545 43.281C44.461 43.6404 44.1871 43.9186 43.833 44.1148C43.4789 44.311 43.0598 44.4091 42.5759 44.4091ZM68.8959 44.4091C68.4129 44.4091 67.9929 44.312 67.639 44.1188C67.285 43.9246 67.011 43.6484 66.818 43.288C66.624 42.9287 66.527 42.5062 66.527 42.0221V38.9772H67.636V42.0221C67.636 42.298 67.688 42.5383 67.792 42.7455C67.8969 42.9517 68.0439 43.1098 68.2349 43.2189C68.4269 43.3291 68.6489 43.3841 68.9039 43.3841C69.1589 43.3841 69.3809 43.3291 69.5689 43.2189C69.7578 43.1098 69.9038 42.9517 70.0088 42.7455C70.1128 42.5383 70.1648 42.298 70.1648 42.0221V38.9772H71.2657V42.0221C71.2657 42.5012 71.1688 42.9206 70.9748 43.281C70.7818 43.6404 70.5078 43.9186 70.1538 44.1148C69.7998 44.311 69.3809 44.4091 68.8959 44.4091ZM-0.000282288 44.3331V38.9772H2.61346C2.97514 38.9772 3.29492 39.0474 3.5726 39.1876C3.85029 39.3279 4.06677 39.5229 4.22216 39.7729C4.37755 40.0228 4.45525 40.311 4.45525 40.6375C4.45525 40.9791 4.36106 41.2801 4.17247 41.5402C3.98398 41.8003 3.73179 41.9941 3.41591 42.1218L4.60044 44.3331H3.36242L2.31538 42.282H1.10785V44.3331H-0.000282288ZM53.9707 44.3331V38.9772H55.0789V43.3531H58.0055V44.3331H53.9707ZM13.3281 44.3331V38.9772H17.4398V39.9413H14.4364V41.1653H16.4157V42.0988H14.4364V43.3691H17.4704V44.3331H13.3281ZM1.10785 41.3719H2.51407C2.76375 41.3719 2.96374 41.3055 3.11403 41.173C3.26432 41.0404 3.33952 40.8669 3.33952 40.6527C3.33952 40.4385 3.26432 40.2651 3.11403 40.1325C2.96374 39.9998 2.76375 39.9336 2.51407 39.9336H1.10785V41.3719Z" fill="white"/>
<path fill-rule="evenodd" clip-rule="evenodd" d="M100.264 65.851L105.773 61.8463L101.643 67.5398L112.192 68.2001L101.656 68.8595L105.773 74.5363L100.266 70.5329L99.4353 100.1L98.6043 70.5329L93.0971 74.5363L96.4209 69.9524L32.9957 68.2224L96.4663 66.4916L93.0971 61.8463L98.6043 65.851L99.4353 36.3452L100.264 65.851Z" fill="#FFBF00"/>
<path d="M233.737 67.0199L240.903 68.2101L233.665 69.4122L247.582 84.8732L232.147 70.9569L230.952 78.172L229.762 70.9989L199.105 100.1L227.988 69.6199L156.02 68.1817L228.01 66.8004L214.316 51.5718L229.75 65.4953L230.952 58.2484L232.146 65.453L262.793 36.3451L233.737 67.0199Z" fill="#6A00FF"/>
</g>
</g>
<defs>
<filter id="filter0_d_467_478" x="-10.0003" y="-10.0003" width="317.047" height="120.1" filterUnits="userSpaceOnUse" color-interpolation-filters="sRGB">
<feFlood flood-opacity="0" result="BackgroundImageFix"/>
<feColorMatrix in="SourceAlpha" type="matrix" values="0 0 0 0 0 0 0 0 0 0 0 0 0 0 0 0 0 0 127 0" result="hardAlpha"/>
<feOffset/>
<feGaussianBlur stdDeviation="5"/>
<feComposite in2="hardAlpha" operator="out"/>
<feColorMatrix type="matrix" values="0 0 0 0 0 0 0 0 0 0 0 0 0 0 0 0 0 0 0.5 0"/>
<feBlend mode="normal" in2="BackgroundImageFix" result="effect1_dropShadow_467_478"/>
<feBlend mode="normal" in="SourceGraphic" in2="effect1_dropShadow_467_478" result="shape"/>
</filter>
<clipPath id="clip0_467_478">
<rect width="296.983" height="100" fill="white"/>
</clipPath>
</defs>
</svg>
